<svg width="25" height="17" viewBox="0 0 25 17" fill="none" xmlns="http://www.w3.org/2000/svg">
<path d="M0.550286 16.3499C0.902742 16.7662 1.38071 17 1.87908 17C2.37746 17 2.85543 16.7662 3.20788 16.3499L12.5113 5.35937L21.8148 16.3499C22.1693 16.7544 22.6441 16.9782 23.1368 16.9731C23.6296 16.968 24.101 16.7345 24.4495 16.3229C24.798 15.9112 24.9956 15.3543 24.9999 14.7722C25.0042 14.19 24.8148 13.6292 24.4724 13.2104L13.8401 0.65008C13.4877 0.233835 13.0097 2.27469e-06 12.5113 2.18755e-06C12.013 2.10042e-06 11.535 0.233835 11.1826 0.65008L0.550286 13.2104C0.197937 13.6268 -2.40984e-06 14.1914 -2.50982e-06 14.7802C-2.60979e-06 15.3689 0.197936 15.9335 0.550286 16.3499Z" fill="white" fill-opacity="0.7"/>
</svg>
