<svg width="25" height="17" viewBox="0 0 25 17" fill="none" xmlns="http://www.w3.org/2000/svg">
<path d="M24.4497 0.650082C24.0973 0.233837 23.6193 3.69399e-06 23.1209 3.65042e-06C22.6225 3.60685e-06 22.1446 0.233837 21.7921 0.650081L12.4887 11.6406L3.18519 0.65008C2.83071 0.245632 2.35595 0.0218372 1.86315 0.0268954C1.37036 0.0319537 0.898956 0.265463 0.550483 0.677126C0.202011 1.08879 0.00435002 1.64567 6.79742e-05 2.22783C-0.00421407 2.80999 0.185228 3.37085 0.527591 3.7896L11.1599 16.3499C11.5123 16.7662 11.9903 17 12.4887 17C12.987 17 13.465 16.7662 13.8174 16.3499L24.4497 3.78961C24.8021 3.37324 25 2.80859 25 2.21984C25 1.6311 24.8021 1.06645 24.4497 0.650082Z" fill="white" fill-opacity="0.7"/>
</svg>
