<svg width="27" height="20" viewBox="0 0 27 20" fill="none" xmlns="http://www.w3.org/2000/svg">
<path d="M3.00086 19.1415H23.9991C25.9967 19.1415 27 18.1478 27 16.1787V3.68786C27 1.71879 25.9967 0.72461 23.9991 0.72461H3.00086C1.01298 0.724127 0 1.70866 0 3.68786V16.1792C0 18.1483 1.01298 19.1415 3.00086 19.1415ZM3.02979 17.6035C2.07418 17.6035 1.539 17.0876 1.539 16.0934V14.7077H4.22454C5.63866 14.7077 6.47036 13.876 6.47036 12.4614V7.39554C6.47036 5.98093 5.63866 5.14972 4.22454 5.14972H1.539V3.76356C1.539 2.77902 2.07418 2.26313 3.02979 2.26313H12.7016V5.48384C10.5705 5.82809 8.96496 7.67277 8.96496 9.92824C8.96496 12.1837 10.5705 14.0284 12.7016 14.3823V17.603L3.02979 17.6035ZM17.9777 9.92872C17.9584 7.6829 16.3818 5.86666 14.2411 5.49397V2.26361H23.9702C24.9162 2.26361 25.461 2.7795 25.461 3.76404V5.14972H22.7755C21.3609 5.14972 20.5296 5.98141 20.5296 7.39602V12.4614C20.5296 13.876 21.3609 14.7072 22.7755 14.7072H25.461V16.0934C25.461 17.0871 24.9162 17.6035 23.9702 17.6035H14.2406V14.3818C16.3909 14.0183 18.0061 12.1832 17.9777 9.92775M22.8039 13.1678C22.3358 13.1678 22.0682 12.9002 22.0682 12.432V7.42398C22.0682 6.95582 22.3358 6.68823 22.8039 6.68823H25.461V13.1682L22.8039 13.1678ZM4.19609 6.68823C4.66473 6.68823 4.93232 6.95582 4.93232 7.42398V12.4325C4.93232 12.9002 4.66473 13.1682 4.19609 13.1682H1.53948V6.68823H4.19609ZM10.3511 9.91859C10.349 9.22586 10.5796 8.55249 11.006 8.00655C11.4324 7.46061 12.0299 7.07376 12.7025 6.90809V12.9484C11.3646 12.6041 10.3511 11.3718 10.3511 9.91859ZM16.5925 9.91859C16.5732 11.3713 15.579 12.6041 14.2411 12.9484V6.91773C15.5886 7.2615 16.6016 8.47506 16.5925 9.91859Z" fill="white"/>
</svg>
