<svg width="7" height="9" viewBox="0 0 7 9" fill="none" xmlns="http://www.w3.org/2000/svg">
<path fill-rule="evenodd" clip-rule="evenodd" d="M0.948568 8.44279C0.821887 8.33372 0.750732 8.18587 0.750732 8.03171C0.750732 7.87756 0.821887 7.7297 0.948568 7.62063L4.52934 4.5414L0.948568 1.46218C0.829076 1.3519 0.764024 1.20605 0.767117 1.05534C0.770209 0.904638 0.841203 0.760849 0.965144 0.654268C1.08908 0.547687 1.25629 0.486636 1.43155 0.483977C1.6068 0.481318 1.77641 0.537259 1.90464 0.640014L5.96345 4.13032C6.09013 4.23939 6.16129 4.38725 6.16129 4.5414C6.16129 4.69556 6.09013 4.84341 5.96345 4.95248L1.90464 8.44279C1.7778 8.55173 1.60587 8.61292 1.42661 8.61292C1.24734 8.61292 1.07541 8.55173 0.948568 8.44279Z" fill="#0077FF"/>
</svg>
