<svg width="16" height="15" viewBox="0 0 16 15" fill="none" xmlns="http://www.w3.org/2000/svg">
<path fill-rule="evenodd" clip-rule="evenodd" d="M0.65901 0.65901C1.08097 0.237053 1.65326 0 2.25 0H7.5C7.91421 0 8.25 0.335786 8.25 0.75C8.25 1.16421 7.91421 1.5 7.5 1.5H2.25C2.05109 1.5 1.86032 1.57902 1.71967 1.71967C1.57902 1.86032 1.5 2.05109 1.5 2.25V12.75C1.5 12.9489 1.57902 13.1397 1.71967 13.2803C1.86032 13.421 2.05109 13.5 2.25 13.5H12.75C12.9489 13.5 13.1397 13.421 13.2803 13.2803C13.421 13.1397 13.5 12.9489 13.5 12.75V7.5C13.5 7.08579 13.8358 6.75 14.25 6.75C14.6642 6.75 15 7.08579 15 7.5V12.75C15 13.3467 14.7629 13.919 14.341 14.341C13.919 14.7629 13.3467 15 12.75 15H2.25C1.65326 15 1.08097 14.7629 0.65901 14.341C0.237053 13.919 0 13.3467 0 12.75V2.25C0 1.65326 0.237053 1.08097 0.65901 0.65901Z" fill="#0B1A39"/>
<path fill-rule="evenodd" clip-rule="evenodd" d="M13.6585 3.50034C13.4354 3.50034 13.2214 3.58897 13.0637 3.74672L6.17774 10.6327L5.7812 12.2188L7.36735 11.8223L14.2533 4.93633C14.411 4.77858 14.4997 4.56462 14.4997 4.34153C14.4997 4.11843 14.411 3.90447 14.2533 3.74672C14.0955 3.58897 13.8816 3.50034 13.6585 3.50034ZM12.0028 2.68582C12.4419 2.2467 13.0375 2 13.6585 2C14.2795 2 14.8751 2.2467 15.3142 2.68582C15.7533 3.12494 16 3.72051 16 4.34153C16 4.96254 15.7533 5.55811 15.3142 5.99723L8.28133 13.0301C8.18518 13.1262 8.06472 13.1944 7.93282 13.2274L4.93213 13.9776C4.67649 14.0415 4.40606 13.9666 4.21974 13.7803C4.03341 13.5939 3.9585 13.3235 4.02241 13.0679L4.77259 10.0672C4.80556 9.93528 4.87377 9.81482 4.96991 9.71868L12.0028 2.68582Z" fill="#0B1A39"/>
</svg>
