<svg width="18" height="12" viewBox="0 0 18 12" fill="none" xmlns="http://www.w3.org/2000/svg">
<path d="M9.00028 0C12.5105 0 15.434 1.82175 17.7267 5.3655L17.9067 5.64975L17.9435 5.72475L17.9681 5.787L17.9795 5.82825L17.991 5.88975L18 5.96475V6.04725L17.9885 6.1305C17.9832 6.15835 17.9761 6.18589 17.9673 6.213L17.9354 6.294L17.9059 6.35025L17.8928 6.37275C15.6312 9.99975 12.738 11.9078 9.25638 11.997L9.00028 12C5.40333 12 2.42415 10.0883 0.107743 6.372C0.0371371 6.2587 0 6.13048 0 6C0 5.86952 0.0371371 5.7413 0.107743 5.628C2.42415 1.91175 5.40333 0 9.00028 0ZM9.00028 3.75C8.34925 3.75 7.72489 3.98705 7.26455 4.40901C6.8042 4.83097 6.54558 5.40326 6.54558 6C6.54558 6.59674 6.8042 7.16903 7.26455 7.59099C7.72489 8.01295 8.34925 8.25 9.00028 8.25C9.6513 8.25 10.2757 8.01295 10.736 7.59099C11.1964 7.16903 11.455 6.59674 11.455 6C11.455 5.40326 11.1964 4.83097 10.736 4.40901C10.2757 3.98705 9.6513 3.75 9.00028 3.75Z" fill="#979797"/>
</svg>
