<svg width="20" height="17" viewBox="0 0 20 17" fill="none" xmlns="http://www.w3.org/2000/svg">
<path fill-rule="evenodd" clip-rule="evenodd" d="M9.94515 2.32331C10.9345 1.42887 12.2328 0.930937 13.5814 0.928711C15.0393 0.928711 16.4313 1.51391 17.45 2.5442C18.4636 3.57531 19.0283 4.94967 19.0253 6.37852C19.0283 7.80736 18.4636 9.18172 17.45 10.2128C16.7776 10.8928 16.1061 11.5893 15.4312 12.2882C14.0595 13.7092 12.6734 15.1458 11.2333 16.4984L11.2307 16.5017C10.8731 16.8321 10.3964 17.0115 9.90402 17.0009C9.41167 16.9902 8.94352 16.7904 8.60129 16.4448L2.43947 10.2128C0.340488 8.08879 0.340488 4.66824 2.43947 2.54502C3.40966 1.55299 4.74108 0.973549 6.14571 0.932056C7.55034 0.890564 8.91524 1.39035 9.94515 2.32331Z" fill="#0B1A39"/>
</svg>
