<svg width="17" height="20" viewBox="0 0 17 20" fill="none" xmlns="http://www.w3.org/2000/svg">
<path d="M12.9937 5.67137C12.9937 8.0903 11.0328 10.0512 8.61389 10.0512C6.19496 10.0512 4.23402 8.0903 4.23402 5.67137C4.23402 3.25244 6.19496 1.2915 8.61389 1.2915C11.0328 1.2915 12.9937 3.25244 12.9937 5.67137Z" stroke="#807A7A" stroke-width="1.5" stroke-linecap="round" stroke-linejoin="round"/>
<path fill-rule="evenodd" clip-rule="evenodd" d="M1.66652 16.1428C1.66534 15.8349 1.7342 15.5307 1.86789 15.2534C2.28742 14.4143 3.47049 13.9696 4.45218 13.7682C5.16018 13.6172 5.87795 13.5162 6.60016 13.4662C7.93727 13.3487 9.28211 13.3487 10.6192 13.4662C11.3414 13.5168 12.0591 13.6177 12.7672 13.7682C13.7489 13.9696 14.932 14.3724 15.3515 15.2534C15.6203 15.8188 15.6203 16.4752 15.3515 17.0406C14.932 17.9216 13.7489 18.3243 12.7672 18.5173C12.06 18.6746 11.342 18.7784 10.6192 18.8277C9.53092 18.92 8.43754 18.9368 7.34692 18.8781C7.0952 18.8781 6.85187 18.8781 6.60016 18.8277C5.88008 18.779 5.1648 18.6752 4.46057 18.5173C3.47049 18.3243 2.29581 17.9216 1.86789 17.0406C1.73489 16.76 1.66609 16.4533 1.66652 16.1428Z" stroke="#807A7A" stroke-width="1.5" stroke-linecap="round" stroke-linejoin="round"/>
</svg>
