<svg width="38" height="49" viewBox="0 0 38 49" fill="none" xmlns="http://www.w3.org/2000/svg">
<g clip-path="url(#clip0_893_231)">
<path fill-rule="evenodd" clip-rule="evenodd" d="M6.58971 0H31.371L31.3513 0.0358887L37.9961 8.60132L28.8295 24.5558C31.1231 27.1518 32.5197 30.5771 32.5197 34.3375C32.5197 42.4364 26.0441 49 18.0538 49C10.0636 49 3.58795 42.4364 3.58795 34.3375C3.58795 29.9631 5.48028 26.0352 8.4781 23.3516L0 8.60132L6.62512 0.0598145L6.58971 0ZM21.2444 20.0339L31.0641 0.514404L26.7877 7.62435H11.1573L7.11295 0.873291L16.61 19.7467C17.086 19.6989 17.566 19.675 18.0538 19.675C19.1515 19.675 20.2176 19.7986 21.2444 20.0339ZM18.0538 22.7614C24.3603 22.7614 29.4747 27.9413 29.4747 34.3375C29.4747 40.7336 24.3603 45.9136 18.0538 45.9136C11.7474 45.9136 6.63299 40.7297 6.63299 34.3375C6.63299 27.9413 11.7474 22.7614 18.0538 22.7614Z" fill="white"/>
<path d="M14.8541 38.055C16.0701 37.0037 17.0264 36.1423 17.7231 35.471C18.4324 34.787 19.0214 34.0777 19.4901 33.343C19.9588 32.6083 20.1931 31.8737 20.1931 31.139C20.1931 30.379 20.0094 29.7837 19.6421 29.353C19.2874 28.9223 18.7238 28.707 17.9511 28.707C17.2038 28.707 16.6211 28.9477 16.2031 29.429C15.7978 29.8977 15.5824 30.531 15.5571 31.329H13.4671C13.5051 29.885 13.9358 28.783 14.7591 28.023C15.5951 27.2503 16.6528 26.864 17.9321 26.864C19.3128 26.864 20.3894 27.244 21.1621 28.004C21.9474 28.764 22.3401 29.7773 22.3401 31.044C22.3401 31.956 22.1058 32.8363 21.6371 33.685C21.1811 34.521 20.6301 35.2747 19.9841 35.946C19.3508 36.6047 18.5401 37.371 17.5521 38.245L16.6971 39.005H22.7201V40.81H13.4861V39.233L14.8541 38.055Z" fill="white"/>
</g>
<defs>
<clipPath id="clip0_893_231">
<rect width="38" height="49" fill="white"/>
</clipPath>
</defs>
</svg>
