<svg width="53" height="69" viewBox="0 0 53 69" fill="none" xmlns="http://www.w3.org/2000/svg">
<g clip-path="url(#clip0_893_238)">
<path fill-rule="evenodd" clip-rule="evenodd" d="M9.19091 0H43.7542L43.7268 0.0505371L52.9945 12.1121L40.2095 34.5786C43.4085 38.2341 45.3565 43.0576 45.3565 48.3528C45.3565 59.7573 36.3247 69 25.1804 69C14.036 69 5.00425 59.7573 5.00425 48.3528C5.00425 42.1929 7.64355 36.6619 11.8247 32.8828L0 12.1121L9.2403 0.0842285L9.19091 0ZM29.6304 28.2109L43.3262 0.724365L37.3617 10.7363H15.5614L9.9207 1.22974L23.1666 27.8066C23.8305 27.7393 24.5 27.7056 25.1804 27.7056C26.7113 27.7056 28.1983 27.8796 29.6304 28.2109ZM25.1804 32.0518C33.9762 32.0518 41.1094 39.3459 41.1094 48.3528C41.1094 57.3596 33.9762 64.6538 25.1804 64.6538C16.3845 64.6538 9.25127 57.354 9.25127 48.3528C9.25127 39.3459 16.3845 32.0518 25.1804 32.0518Z" fill="white"/>
<path d="M22.6389 42.9209V40.9449H26.5909V54.7959H24.4059V42.9209H22.6389Z" fill="white"/>
</g>
<defs>
<clipPath id="clip0_893_238">
<rect width="53" height="69" fill="white"/>
</clipPath>
</defs>
</svg>
