<svg width="32" height="42" viewBox="0 0 32 42" fill="none" xmlns="http://www.w3.org/2000/svg">
<g clip-path="url(#clip0_893_243)">
<path fill-rule="evenodd" clip-rule="evenodd" d="M5.54923 0H26.4176L26.4011 0.0307617L31.9967 7.37256L24.2775 21.0479C26.2089 23.2729 27.385 26.209 27.385 29.4321C27.385 36.374 21.9319 42 15.2032 42C8.47458 42 3.02143 36.374 3.02143 29.4321C3.02143 25.6826 4.61497 22.3159 7.13946 20.0156L0 7.37256L5.57905 0.0512695L5.54923 0ZM17.8901 17.1719L26.1592 0.440918L22.558 6.53516H9.39559L5.98985 0.748535L13.9874 16.9258C14.3882 16.8848 14.7924 16.8643 15.2032 16.8643C16.1276 16.8643 17.0254 16.9702 17.8901 17.1719ZM15.2032 19.5098C20.5139 19.5098 24.8208 23.9497 24.8208 29.4321C24.8208 34.9146 20.5139 39.3545 15.2032 39.3545C9.89254 39.3545 5.58567 34.9111 5.58567 29.4321C5.58567 23.9497 9.89254 19.5098 15.2032 19.5098Z" fill="white"/>
<path d="M10.6194 26.1403C10.6954 24.9623 11.145 24.044 11.9684 23.3853C12.8044 22.7266 13.8684 22.3973 15.1604 22.3973C16.047 22.3973 16.8134 22.5556 17.4594 22.8723C18.1054 23.189 18.593 23.6196 18.9224 24.1643C19.2517 24.709 19.4164 25.3233 19.4164 26.0073C19.4164 26.7926 19.2074 27.464 18.7894 28.0213C18.3714 28.5786 17.871 28.9523 17.2884 29.1423V29.2183C18.0357 29.4463 18.6184 29.8643 19.0364 30.4723C19.4544 31.0676 19.6634 31.834 19.6634 32.7713C19.6634 33.5186 19.4924 34.1836 19.1504 34.7663C18.8084 35.349 18.3017 35.8113 17.6304 36.1533C16.959 36.4826 16.1547 36.6473 15.2174 36.6473C13.8494 36.6473 12.722 36.299 11.8354 35.6023C10.9614 34.893 10.4927 33.8796 10.4294 32.5623H12.5194C12.57 33.2336 12.8297 33.7846 13.2984 34.2153C13.767 34.6333 14.4004 34.8423 15.1984 34.8423C15.971 34.8423 16.5664 34.6333 16.9844 34.2153C17.4024 33.7846 17.6114 33.2336 17.6114 32.5623C17.6114 31.6756 17.3264 31.0486 16.7564 30.6813C16.199 30.3013 15.3377 30.1113 14.1724 30.1113H13.6784V28.3253H14.1914C15.2174 28.3126 15.9964 28.1416 16.5284 27.8123C17.073 27.483 17.3454 26.9636 17.3454 26.2543C17.3454 25.6463 17.149 25.165 16.7564 24.8103C16.3637 24.443 15.8064 24.2593 15.0844 24.2593C14.375 24.2593 13.824 24.443 13.4314 24.8103C13.0387 25.165 12.8044 25.6083 12.7284 26.1403H10.6194Z" fill="white"/>
</g>
<defs>
<clipPath id="clip0_893_243">
<rect width="32" height="42" fill="white"/>
</clipPath>
</defs>
</svg>
