<svg width="20" height="20" viewBox="0 0 20 20" fill="none" xmlns="http://www.w3.org/2000/svg">
<path d="M17.4874 8.54021C17.4874 12.7324 13.1115 16.4656 11.0674 17.9807C10.4494 18.4388 9.6271 18.4388 9.00906 17.9807C6.96504 16.4656 2.58911 12.7324 2.58911 8.54021C2.58911 6.6751 3.37393 4.88638 4.77091 3.56755C6.1679 2.24872 8.06261 1.50781 10.0382 1.50781C12.0139 1.50781 13.9086 2.24872 15.3056 3.56755C16.7026 4.88638 17.4874 6.6751 17.4874 8.54021Z" fill="#716E90"/>
<path d="M10.0382 10.8846C11.4096 10.8846 12.5213 9.83505 12.5213 8.54042C12.5213 7.24579 11.4096 6.19629 10.0382 6.19629C8.66687 6.19629 7.55518 7.24579 7.55518 8.54042C7.55518 9.83505 8.66687 10.8846 10.0382 10.8846Z" fill="white"/>
</svg>
