<svg width="34" height="22" viewBox="0 0 34 22" fill="none" xmlns="http://www.w3.org/2000/svg">
<path d="M0.5 0H33.5V22H0.5V0ZM17 5.5C18.4587 5.5 19.8576 6.07946 20.8891 7.11091C21.9205 8.14236 22.5 9.54131 22.5 11C22.5 12.4587 21.9205 13.8576 20.8891 14.8891C19.8576 15.9205 18.4587 16.5 17 16.5C15.5413 16.5 14.1424 15.9205 13.1109 14.8891C12.0795 13.8576 11.5 12.4587 11.5 11C11.5 9.54131 12.0795 8.14236 13.1109 7.11091C14.1424 6.07946 15.5413 5.5 17 5.5ZM7.83333 3.66667C7.83333 4.63913 7.44703 5.57176 6.75939 6.25939C6.07176 6.94702 5.13913 7.33333 4.16667 7.33333V14.6667C5.13913 14.6667 6.07176 15.053 6.75939 15.7406C7.44703 16.4282 7.83333 17.3609 7.83333 18.3333H26.1667C26.1667 17.3609 26.553 16.4282 27.2406 15.7406C27.9282 15.053 28.8609 14.6667 29.8333 14.6667V7.33333C28.8609 7.33333 27.9282 6.94702 27.2406 6.25939C26.553 5.57176 26.1667 4.63913 26.1667 3.66667H7.83333Z" fill="#0B1A39"/>
</svg>
