<svg width="31" height="33" viewBox="0 0 31 33" fill="none" xmlns="http://www.w3.org/2000/svg">
<path d="M3.31943 28.9191L3.2666 28.5478L3.26498 28.5481L3.31943 28.9191ZM4.87494 28.4335L4.90017 28.8076L4.9017 28.8075L4.87494 28.4335ZM6.775 29.3812L7.02404 29.1008L7.02334 29.1002L6.775 29.3812ZM8.11599 30.5629L8.36413 30.2817L8.36208 30.2799L8.11599 30.5629ZM9.19552 31.2621L9.29739 30.9012L9.29684 30.9011L9.19552 31.2621ZM10.4581 31.7002L10.567 31.3413L10.5662 31.3411L10.4581 31.7002ZM10.2229 30.1038L10.0479 30.4354L10.0483 30.4356L10.2229 30.1038ZM8.66513 29.2888L8.45245 29.5977L8.4527 29.5979L8.66513 29.2888ZM26.6622 4.94678L26.3623 5.17184L26.3789 5.19394L26.3985 5.21338L26.6622 4.94678ZM12.9973 5.27845L12.6881 5.06632L12.6801 5.07796L12.673 5.09018L12.9973 5.27845ZM9.97568 13.9954L10.336 14.0992L10.3421 14.0782L10.3456 14.0566L9.97568 13.9954ZM8.53098 18.8671L8.19574 18.6991L8.16425 18.7619L8.15764 18.8319L8.53098 18.8671ZM5.72866 21.6921L5.50099 21.394L5.49693 21.3972L5.72866 21.6921ZM2.39531 24.312L2.53967 24.6581L2.58685 24.6384L2.62704 24.6068L2.39531 24.312ZM0.90618 25.5179L1.26185 25.3987L1.25893 25.3906L0.90618 25.5179ZM2.7916 27.6794L2.96564 27.3471L2.95791 27.3433L2.7916 27.6794ZM4.18856 26.3679L3.92794 26.0983L3.89118 26.1338L3.86528 26.1778L4.18856 26.3679ZM7.237 23.4213L6.97995 23.1482L6.97637 23.1517L7.237 23.4213ZM10.4164 21.0287L10.3976 21.4032L10.4638 21.4065L10.5271 21.387L10.4164 21.0287ZM15.4392 20.2591L15.4319 19.8842L15.409 19.8847L15.3864 19.8879L15.4392 20.2591ZM24.4858 18.4496L24.6316 18.7951L24.6432 18.7902L24.6543 18.7846L24.4858 18.4496ZM17.8739 5.17773L17.8933 4.80322L17.8931 4.80322L17.8739 5.17773ZM17.022 5.91235L17.3954 5.94784L17.3956 5.94441L17.022 5.91235ZM15.8813 8.42136L15.9228 8.0486L15.916 8.04797L15.8813 8.42136ZM15.1349 7.5753L14.7604 7.55531L14.7603 7.55917L15.1349 7.5753ZM16.0065 6.81509L16.0336 6.44106L16.0297 6.44082L16.0065 6.81509ZM16.7505 7.69699L16.3768 7.66572L16.3763 7.67306L16.7505 7.69699ZM24.5639 10.8285L24.5249 11.2015L24.5256 11.2015L24.5639 10.8285ZM22.8221 10.8506L22.8532 10.4769L22.8493 10.4766L22.8221 10.8506ZM23.5816 11.7021L23.9564 11.7145L23.9564 11.7143L23.5816 11.7021ZM22.7143 12.4671L22.6834 12.8409L22.6909 12.8414L22.7143 12.4671ZM21.9769 11.6217L21.6024 11.6014L21.6024 11.6016L21.9769 11.6217ZM19.8663 14.9513L19.4918 14.9311L19.4918 14.9312L19.8663 14.9513ZM19.0037 15.7122L18.9766 16.0862L18.9804 16.0864L19.0037 15.7122ZM18.2526 14.8702L18.6273 14.8862L18.6275 14.8795L18.2526 14.8702ZM20.9767 12.4941L21.0159 12.1212L21.015 12.1211L20.9767 12.4941ZM20.842 14.1087L20.8732 13.735L20.8729 13.7349L20.842 14.1087ZM20.098 13.2268L19.7242 13.1955L19.724 13.1991L20.098 13.2268ZM23.0651 7.3316L23.1 6.95823L23.0996 6.95819L23.0651 7.3316ZM23.8061 8.19077L23.4316 8.17078L23.4315 8.17433L23.8061 8.19077ZM22.9315 8.92825L22.9007 9.30199L22.9008 9.30199L22.9315 8.92825ZM22.2078 8.07934L22.5821 8.10327L22.5823 8.09963L22.2078 8.07934ZM21.0814 10.5759L21.0579 10.9501L21.0581 10.9502L21.0814 10.5759ZM20.3225 9.71541L19.9485 9.6877L19.9482 9.69148L20.3225 9.71541ZM21.185 8.95456L21.2205 8.58123L21.22 8.58118L21.185 8.95456ZM21.944 9.81503L22.3189 9.82303L22.3189 9.82232L21.944 9.81503ZM19.2901 10.5989L19.263 10.973L19.2708 10.9734L19.2901 10.5989ZM20.0622 11.4649L19.688 11.4409L19.6877 11.4448L20.0622 11.4649ZM19.187 12.2113L19.1561 12.585L19.1561 12.585L19.187 12.2113ZM18.4449 11.37L18.0706 11.3461L18.0702 11.3538L18.4449 11.37ZM17.3058 13.8522L17.2709 14.2255L17.2711 14.2256L17.3058 13.8522ZM16.5671 12.9572L16.9404 12.9929L16.9405 12.9924L16.5671 12.9572ZM17.4626 12.2437L17.5053 11.8711L17.5047 11.8711L17.4626 12.2437ZM18.1852 13.1105L17.8112 13.0827L17.8112 13.0828L18.1852 13.1105ZM21.4012 5.43358L21.3779 5.80785L21.3781 5.80786L21.4012 5.43358ZM22.1673 6.32157L22.541 6.35381L22.5413 6.34952L22.1673 6.32157ZM21.3106 7.06035L21.3296 6.68582L21.3264 6.68568L21.3106 7.06035ZM20.5428 6.19923L20.1688 6.17152L20.1685 6.1753L20.5428 6.19923ZM19.511 7.0738L19.5343 6.6995L19.5303 6.6993L19.511 7.0738ZM20.2926 7.93142L20.6671 7.95156L20.6671 7.9514L20.2926 7.93142ZM19.4222 8.6737L19.3915 9.04746L19.3951 9.04772L19.4222 8.6737ZM18.6818 7.80557L19.0552 7.84039L19.0557 7.83344L18.6818 7.80557ZM15.7677 10.3389L15.7446 10.7132L15.748 10.7134L15.7677 10.3389ZM15.6735 11.9519L15.6426 12.3257L15.6427 12.3257L15.6735 11.9519ZM14.9205 11.0694L15.2942 11.1011L15.2945 11.0974L14.9205 11.0694ZM17.6626 8.69455L17.6937 8.32083L17.6897 8.32053L17.6626 8.69455ZM18.4084 9.54957L18.0338 9.52966L18.0336 9.53676L18.4084 9.54957ZM17.5637 10.3117L17.5402 10.686L17.5403 10.686L17.5637 10.3117ZM16.791 9.45475L16.4168 9.43083L16.4166 9.43453L16.791 9.45475ZM14.765 18.4959L14.7482 18.1213L14.7456 18.1214L14.765 18.4959ZM11.2205 18.9317L11.3398 19.2874L11.3489 19.2841L11.2205 18.9317ZM10.8512 18.7295L10.5797 18.9881L10.5879 18.9968L10.5968 19.0049L10.8512 18.7295ZM10.6518 18.2605L10.967 18.4638L10.9677 18.4627L10.6518 18.2605ZM11.8176 13.9535L12.1819 14.0423L12.182 14.0422L11.8176 13.9535ZM12.0764 13.0004L12.4325 12.8827L12.109 11.904L11.728 12.8618L12.0764 13.0004ZM16.6317 18.3478L16.7213 18.712L17.6946 18.4724L16.8031 18.0143L16.6317 18.3478ZM21.7577 15.12L21.3837 15.0925L21.3835 15.0961L21.7577 15.12ZM22.6228 14.3908L22.6537 14.0171L22.6534 14.0171L22.6228 14.3908ZM23.3649 15.2321L23.7393 15.256L23.7396 15.2482L23.3649 15.2321ZM24.3514 14.3632L24.3163 14.7366L24.3204 14.7369L24.3514 14.3632ZM23.6008 13.5124L23.2261 13.4962L23.2261 13.4964L23.6008 13.5124ZM24.4592 12.7467L24.4826 12.3724L24.4825 12.3724L24.4592 12.7467ZM25.2223 13.612L25.5963 13.6397L25.5966 13.6359L25.2223 13.612ZM10.4033 21.0232L10.3845 21.3978C10.5864 21.4079 10.7601 21.2561 10.777 21.0545C10.7938 20.853 10.6478 20.6744 10.447 20.6508L10.4033 21.0232ZM7.22386 23.4159L6.96681 23.1428L6.96323 23.1462L7.22386 23.4159ZM4.17542 26.3624L3.9148 26.0928C3.89041 26.1164 3.86933 26.1431 3.85214 26.1724L4.17542 26.3624ZM2.77846 27.674L2.9525 27.3417L2.94477 27.3379L2.77846 27.674ZM0.893039 25.5124L1.24871 25.3933L1.24578 25.3851L0.893039 25.5124ZM2.38217 24.3065L2.52653 24.6526C2.55784 24.6396 2.58723 24.6223 2.61391 24.6014L2.38217 24.3065ZM5.71552 21.6866L5.48785 21.3886L5.48379 21.3918L5.71552 21.6866ZM8.51784 18.8617L8.88382 18.7799C8.84359 18.5999 8.6784 18.4758 8.49429 18.4874C8.31018 18.499 8.16185 18.6428 8.1445 18.8264L8.51784 18.8617ZM9.24148 20.1335L8.95888 20.38L9.24148 20.1335ZM3.10201 25.4971L3.41933 25.2973L3.40379 25.2726L3.38461 25.2506L3.10201 25.4971ZM4.22208 26.4063L4.50468 26.1598L4.44968 26.0968L4.37309 26.0631L4.22208 26.4063ZM4.22627 26.4111L4.47277 26.6937L4.75537 26.4472L4.50887 26.1646L4.22627 26.4111ZM4.22151 26.4153L4.27348 26.7866L4.38395 26.7712L4.46801 26.6979L4.22151 26.4153ZM3.83827 26.3605L3.68723 26.7038L3.69456 26.7068L3.83827 26.3605ZM3.52497 26.1263L3.25492 26.3865L3.26133 26.3931L3.26807 26.3994L3.52497 26.1263ZM3.27834 25.8339L2.96256 26.0361L2.96749 26.0439L2.9728 26.0513L3.27834 25.8339ZM3.09249 25.5055L3.43583 25.3547L3.41277 25.3022L3.37509 25.259L3.09249 25.5055ZM3.09306 25.4965L2.84656 25.2139L2.84655 25.2139L3.09306 25.4965ZM1.26734 26.7782C1.05096 27.4245 1.28039 28.1009 1.6761 28.5729C2.07193 29.045 2.69819 29.3893 3.37388 29.2901L3.26498 28.5481C2.91473 28.5995 2.52877 28.4226 2.25085 28.091C1.97282 27.7594 1.86698 27.3495 1.97855 27.0163L1.26734 26.7782ZM3.37225 29.2903C3.70321 29.2433 4.00453 29.1074 4.24292 29.0063C4.49973 28.8973 4.69816 28.8212 4.90017 28.8076L4.84971 28.0593C4.50523 28.0826 4.1982 28.2105 3.95002 28.3158C3.68342 28.4289 3.48024 28.5174 3.2666 28.5478L3.37225 29.2903ZM4.9017 28.8075C5.16055 28.789 5.42279 28.8703 5.701 29.0309C5.98184 29.193 6.25267 29.42 6.52666 29.6622L7.02334 29.1002C6.74827 28.8571 6.42821 28.5846 6.07586 28.3813C5.72088 28.1764 5.30763 28.0266 4.84818 28.0594L4.9017 28.8075ZM6.52597 29.6616C6.9729 30.0586 7.41676 30.4517 7.8699 30.8458L8.36208 30.2799C7.91209 29.8886 7.47072 29.4976 7.02404 29.1008L6.52597 29.6616ZM7.86786 30.8441C8.18428 31.1233 8.58732 31.4809 9.0942 31.6232L9.29684 30.9011C8.98203 30.8127 8.70324 30.581 8.36412 30.2817L7.86786 30.8441ZM9.09365 31.623C9.22728 31.6607 9.45364 31.7422 9.70032 31.832C9.9351 31.9174 10.1892 32.0109 10.3501 32.0593L10.5662 31.3411C10.4314 31.3005 10.2044 31.2173 9.9569 31.1272C9.72127 31.0414 9.46413 30.9483 9.29739 30.9012L9.09365 31.623ZM10.3492 32.059C10.6505 32.1505 10.979 32.1417 11.2155 31.914C11.4377 31.7001 11.4686 31.3951 11.4346 31.1521C11.3652 30.6566 10.9942 30.0858 10.3975 29.7719L10.0483 30.4356C10.4436 30.6436 10.6578 31.013 10.6918 31.2561C10.7095 31.3825 10.6717 31.3964 10.6953 31.3737C10.7333 31.3372 10.7333 31.3918 10.567 31.3413L10.3492 32.059ZM10.3979 29.7721C10.0611 29.5944 9.80406 29.4861 9.58598 29.3841C9.36783 29.282 9.16036 29.1742 8.87756 28.9798L8.4527 29.5979C8.77726 29.821 9.02243 29.9485 9.26821 30.0634C9.51405 30.1784 9.73218 30.2688 10.0479 30.4354L10.3979 29.7721ZM8.87781 28.98C7.95706 28.346 6.79212 28.0934 5.70184 28.2913L5.83579 29.0293C6.7292 28.8671 7.69335 29.075 8.45245 29.5977L8.87781 28.98ZM26.6622 4.94678C26.9622 4.72171 26.962 4.72154 26.9619 4.72133C26.9618 4.72121 26.9616 4.72096 26.9614 4.72073C26.9611 4.72026 26.9606 4.71964 26.96 4.71889C26.9589 4.71738 26.9573 4.71532 26.9553 4.7127C26.9514 4.70748 26.9457 4.70006 26.9383 4.69057C26.9236 4.67159 26.9022 4.64428 26.8744 4.60952C26.8186 4.54001 26.737 4.44063 26.6312 4.31837C26.4198 4.07401 26.1114 3.73739 25.7202 3.36483C24.9406 2.62231 23.8193 1.72416 22.4717 1.13628C21.1198 0.546513 19.5257 0.263583 17.8266 0.781206C16.1298 1.29815 14.3819 2.59718 12.6881 5.06632L13.3066 5.49058C14.9353 3.11623 16.5569 1.95205 18.0452 1.49865C19.5313 1.04593 20.9381 1.28552 22.1718 1.82371C23.4098 2.36379 24.4587 3.19902 25.2029 3.90791C25.5737 4.26104 25.8655 4.57963 26.064 4.80905C26.1632 4.92368 26.2388 5.01584 26.2892 5.07864C26.3144 5.11003 26.3332 5.13408 26.3454 5.1499C26.3516 5.15781 26.3561 5.16367 26.3589 5.16736C26.3603 5.16921 26.3613 5.17052 26.3618 5.17127C26.3621 5.17164 26.3623 5.17188 26.3624 5.17198C26.3624 5.17202 26.3624 5.17199 26.3624 5.17202C26.3624 5.17195 26.3623 5.17184 26.6622 4.94678ZM12.9973 5.27845C12.673 5.09018 12.673 5.09025 12.6729 5.09035C12.6729 5.0904 12.6728 5.0905 12.6728 5.0906C12.6726 5.0908 12.6725 5.09106 12.6723 5.09138C12.6719 5.09201 12.6714 5.09288 12.6708 5.09398C12.6696 5.09617 12.6678 5.09928 12.6655 5.1033C12.6609 5.11135 12.6542 5.12304 12.6456 5.1383C12.6284 5.1688 12.6035 5.21356 12.5716 5.27192C12.508 5.38862 12.4168 5.55974 12.3051 5.78C12.0818 6.22043 11.7763 6.85785 11.4455 7.65001C10.7843 9.23294 10.0184 11.4409 9.60572 13.9342L10.3456 14.0566C10.7462 11.6369 11.4912 9.48637 12.1375 7.93908C12.4604 7.16613 12.7579 6.5455 12.974 6.11917C13.0821 5.90604 13.1698 5.7416 13.23 5.63108C13.2602 5.57582 13.2835 5.53406 13.299 5.50645C13.3068 5.49264 13.3127 5.48237 13.3165 5.47573C13.3184 5.4724 13.3198 5.46998 13.3206 5.46848C13.3211 5.46773 13.3214 5.46721 13.3215 5.46692C13.3216 5.46677 13.3217 5.46668 13.3217 5.46665C13.3217 5.46663 13.3217 5.46665 13.3217 5.46665C13.3217 5.46668 13.3216 5.46673 12.9973 5.27845ZM9.97568 13.9954C9.61533 13.8916 9.61533 13.8916 9.61532 13.8917C9.61531 13.8917 9.61529 13.8918 9.61527 13.8918C9.61523 13.892 9.61517 13.8922 9.61509 13.8925C9.61493 13.893 9.61468 13.8939 9.61436 13.895C9.61372 13.8972 9.61275 13.9006 9.61148 13.905C9.60893 13.9138 9.60515 13.927 9.60021 13.9441C9.59033 13.9784 9.57583 14.0286 9.55733 14.0927C9.52034 14.2209 9.46737 14.4042 9.40351 14.6249C9.27577 15.0661 9.10447 15.6564 8.93013 16.2528C8.75573 16.8493 8.57852 17.4511 8.43891 17.9156C8.36904 18.148 8.30897 18.3448 8.26352 18.489C8.24074 18.5613 8.22217 18.6186 8.20819 18.6599C8.19025 18.7128 8.18778 18.715 8.19574 18.6991L8.86623 19.0352C8.88643 18.9949 8.90595 18.9376 8.91851 18.9006C8.93501 18.8519 8.95542 18.7887 8.97883 18.7144C9.02579 18.5655 9.08699 18.3649 9.15716 18.1314C9.29761 17.6642 9.47545 17.0602 9.64999 16.4632C9.82458 15.866 9.99609 15.2751 10.1239 14.8334C10.1879 14.6126 10.2409 14.429 10.2779 14.3007C10.2964 14.2365 10.311 14.1862 10.3209 14.1518C10.3258 14.1347 10.3296 14.1215 10.3322 14.1127C10.3334 14.1082 10.3344 14.1049 10.3351 14.1026C10.3354 14.1015 10.3356 14.1006 10.3358 14.1C10.3359 14.0998 10.3359 14.0995 10.336 14.0994C10.336 14.0993 10.336 14.0993 10.336 14.0992C10.336 14.0992 10.336 14.0992 9.97568 13.9954ZM8.53098 18.8671C8.15764 18.8319 8.1577 18.8313 8.15776 18.8306C8.15778 18.8304 8.15784 18.8298 8.15788 18.8294C8.15797 18.8286 8.15805 18.8278 8.15813 18.8271C8.1583 18.8255 8.15847 18.824 8.15864 18.8226C8.15899 18.8197 8.15935 18.817 8.15971 18.8146C8.16043 18.8097 8.16115 18.8057 8.16176 18.8027C8.16298 18.7965 8.16378 18.7941 8.16334 18.7956C8.16246 18.7985 8.15672 18.8168 8.13984 18.8516C8.1058 18.922 8.02872 19.0554 7.86264 19.2614C7.52938 19.6748 6.85417 20.3604 5.50101 21.3941L5.9563 21.9901C7.33585 20.9362 8.06179 20.2093 8.44652 19.7321C8.63944 19.4928 8.75056 19.3114 8.81497 19.1783C8.84732 19.1114 8.86836 19.0558 8.88196 19.0102C8.88877 18.9874 8.89374 18.9671 8.89731 18.9492C8.8991 18.9402 8.90054 18.9318 8.90169 18.924C8.90226 18.9201 8.90277 18.9164 8.9032 18.9128C8.90342 18.911 8.90362 18.9092 8.90381 18.9075C8.9039 18.9066 8.90399 18.9057 8.90408 18.9049C8.90412 18.9045 8.90418 18.9038 8.9042 18.9036C8.90426 18.903 8.90432 18.9024 8.53098 18.8671ZM5.49693 21.3972L2.16358 24.0172L2.62704 24.6068L5.96039 21.9869L5.49693 21.3972ZM2.39531 24.312C2.25095 23.9659 2.2509 23.9659 2.25083 23.9659C2.2508 23.966 2.25073 23.966 2.25067 23.966C2.25056 23.9661 2.25041 23.9661 2.25024 23.9662C2.2499 23.9663 2.24946 23.9665 2.24892 23.9667C2.24784 23.9672 2.24636 23.9678 2.2445 23.9686C2.24077 23.9702 2.2355 23.9724 2.22879 23.9753C2.21537 23.9811 2.19619 23.9894 2.17212 24C2.12403 24.0213 2.05617 24.052 1.97555 24.0904C1.8153 24.1668 1.60023 24.2756 1.38857 24.4031C1.18181 24.5275 0.956191 24.6827 0.790598 24.8557C0.647544 25.0052 0.427945 25.2973 0.553431 25.6451L1.25893 25.3906C1.29274 25.4843 1.21344 25.4986 1.33241 25.3743C1.42884 25.2736 1.58696 25.1591 1.77541 25.0456C1.95895 24.9351 2.15054 24.8378 2.29815 24.7675C2.37147 24.7325 2.43283 24.7048 2.47549 24.6859C2.49679 24.6765 2.51337 24.6693 2.52436 24.6646C2.52986 24.6622 2.53395 24.6605 2.53654 24.6594C2.53784 24.6589 2.53875 24.6585 2.53928 24.6583C2.53954 24.6582 2.53971 24.6581 2.53977 24.6581C2.53981 24.658 2.53982 24.658 2.5398 24.658C2.53979 24.658 2.53976 24.6581 2.53975 24.6581C2.53972 24.6581 2.53967 24.6581 2.39531 24.312ZM0.90618 25.5179C0.550599 25.637 0.550619 25.637 0.550638 25.6371C0.550644 25.6371 0.550665 25.6372 0.55068 25.6372C0.55071 25.6373 0.550745 25.6374 0.550785 25.6375C0.550863 25.6378 0.550958 25.638 0.551071 25.6384C0.551296 25.639 0.551587 25.6399 0.551944 25.6409C0.552662 25.6431 0.553644 25.6459 0.554894 25.6495C0.557386 25.6568 0.560937 25.6669 0.565519 25.6798C0.57467 25.7054 0.587962 25.7418 0.605158 25.7866C0.639474 25.876 0.68974 26.0002 0.754155 26.1406C0.880066 26.4152 1.07164 26.778 1.31864 27.0611L1.88384 26.5681C1.70767 26.3662 1.55171 26.0806 1.43588 25.828C1.37943 25.7049 1.33528 25.5958 1.30539 25.5179C1.29048 25.4791 1.27923 25.4482 1.27186 25.4276C1.26818 25.4173 1.26548 25.4095 1.26378 25.4046C1.26293 25.4022 1.26234 25.4004 1.262 25.3994C1.26183 25.3989 1.26172 25.3986 1.26169 25.3985C1.26166 25.3985 1.26166 25.3984 1.26167 25.3985C1.26168 25.3985 1.26169 25.3985 1.2617 25.3986C1.26171 25.3986 1.26172 25.3986 1.26173 25.3987C1.26174 25.3987 1.26176 25.3987 0.90618 25.5179ZM1.31864 27.0611C1.56564 27.3443 1.89903 27.5834 2.15393 27.7454C2.28434 27.8283 2.40052 27.895 2.48448 27.9411C2.52655 27.9643 2.56077 27.9824 2.58493 27.9949C2.59701 28.0012 2.6066 28.0061 2.61342 28.0096C2.61682 28.0113 2.61954 28.0127 2.62153 28.0136C2.62253 28.0141 2.62334 28.0146 2.62397 28.0149C2.62428 28.015 2.62455 28.0152 2.62477 28.0153C2.62488 28.0153 2.62498 28.0154 2.62507 28.0154C2.62511 28.0154 2.62517 28.0155 2.62519 28.0155C2.62524 28.0155 2.62529 28.0155 2.7916 27.6794C2.95791 27.3433 2.95796 27.3433 2.958 27.3434C2.95801 27.3434 2.95805 27.3434 2.95807 27.3434C2.95811 27.3434 2.95814 27.3434 2.95815 27.3434C2.95819 27.3434 2.95817 27.3434 2.95812 27.3434C2.958 27.3434 2.95771 27.3432 2.95724 27.343C2.9563 27.3425 2.95466 27.3417 2.95235 27.3405C2.94772 27.3382 2.94041 27.3344 2.93069 27.3294C2.91124 27.3193 2.88222 27.3039 2.84575 27.2839C2.77264 27.2437 2.67057 27.1851 2.55628 27.1125C2.3218 26.9634 2.06002 26.7701 1.88384 26.5681L1.31864 27.0611ZM2.61761 28.0116C2.94518 28.1832 3.26439 28.0053 3.4319 27.8839C3.62579 27.7433 3.81018 27.5409 3.96158 27.3529C4.11659 27.1605 4.25367 26.9623 4.35108 26.8139C4.40009 26.7392 4.43973 26.6761 4.46734 26.6314C4.48115 26.609 4.49199 26.5911 4.49951 26.5786C4.50327 26.5723 4.50621 26.5674 4.50828 26.5639C4.50931 26.5622 4.51013 26.5608 4.51072 26.5598C4.51102 26.5593 4.51126 26.5589 4.51145 26.5586C4.51154 26.5584 4.51162 26.5583 4.51169 26.5582C4.51172 26.5581 4.51176 26.5581 4.51177 26.558C4.51181 26.558 4.51184 26.5579 4.18856 26.3679C3.86528 26.1778 3.8653 26.1778 3.86532 26.1778C3.86532 26.1778 3.86534 26.1777 3.86535 26.1777C3.86535 26.1777 3.86535 26.1777 3.86533 26.1778C3.8653 26.1778 3.8652 26.178 3.86506 26.1782C3.86477 26.1787 3.86426 26.1796 3.86354 26.1808C3.86211 26.1832 3.85983 26.187 3.85675 26.1921C3.85058 26.2024 3.84122 26.2178 3.82899 26.2377C3.80451 26.2774 3.76867 26.3344 3.7241 26.4023C3.63437 26.539 3.51196 26.7156 3.37755 26.8824C3.23955 27.0537 3.10461 27.1948 2.9917 27.2766C2.8524 27.3776 2.87734 27.301 2.96559 27.3472L2.61761 28.0116ZM4.44918 26.6375L7.49762 23.6909L6.97637 23.1517L3.92794 26.0983L4.44918 26.6375ZM7.49402 23.6944C8.7723 22.4912 9.54692 21.9114 9.99061 21.6345C10.212 21.4963 10.3439 21.438 10.409 21.4145C10.4411 21.4029 10.4544 21.4007 10.4521 21.4011C10.4509 21.4014 10.4454 21.4023 10.4362 21.4029C10.4316 21.4033 10.4261 21.4036 10.4196 21.4036C10.4164 21.4037 10.4129 21.4037 10.4093 21.4036C10.4074 21.4036 10.4055 21.4035 10.4036 21.4035C10.4026 21.4034 10.4016 21.4034 10.4006 21.4034C10.4001 21.4033 10.3994 21.4033 10.3991 21.4033C10.3984 21.4033 10.3976 21.4032 10.4164 21.0287C10.4352 20.6542 10.4344 20.6541 10.4337 20.6541C10.4334 20.6541 10.4326 20.654 10.4321 20.654C10.4311 20.654 10.43 20.6539 10.429 20.6539C10.4269 20.6538 10.4248 20.6538 10.4226 20.6537C10.4184 20.6537 10.414 20.6537 10.4096 20.6537C10.4006 20.6538 10.3914 20.6542 10.3817 20.6549C10.3624 20.6563 10.3415 20.659 10.3186 20.6631C10.2732 20.6713 10.2191 20.6857 10.1543 20.7091C10.0255 20.7556 9.84518 20.8412 9.59349 20.9983C9.09104 21.3119 8.27596 21.9284 6.97997 23.1482L7.49402 23.6944ZM10.5271 21.387C10.5269 21.387 10.5469 21.3817 10.6007 21.371C10.6491 21.3613 10.7132 21.3495 10.7918 21.3357C10.9487 21.3082 11.1567 21.2741 11.3992 21.2358C11.8837 21.1592 12.4997 21.0664 13.1065 20.9766C13.7131 20.8869 14.3095 20.8003 14.7544 20.7362C14.9768 20.7041 15.1612 20.6777 15.2901 20.6592C15.3545 20.65 15.405 20.6428 15.4394 20.6379C15.4566 20.6354 15.4698 20.6336 15.4786 20.6323C15.4831 20.6317 15.4864 20.6312 15.4887 20.6309C15.4898 20.6307 15.4906 20.6306 15.4912 20.6305C15.4915 20.6305 15.4917 20.6304 15.4918 20.6304C15.4919 20.6304 15.4919 20.6304 15.492 20.6304C15.492 20.6304 15.492 20.6304 15.4392 20.2591C15.3864 19.8879 15.3864 19.8879 15.3863 19.8879C15.3863 19.8879 15.3863 19.8879 15.3862 19.8879C15.386 19.8879 15.3858 19.888 15.3855 19.888C15.385 19.8881 15.3841 19.8882 15.383 19.8884C15.3807 19.8887 15.3773 19.8892 15.3729 19.8898C15.3639 19.8911 15.3507 19.893 15.3335 19.8954C15.299 19.9003 15.2484 19.9076 15.1838 19.9168C15.0548 19.9353 14.87 19.9618 14.6473 19.9939C14.202 20.0581 13.6046 20.1448 12.9968 20.2347C12.3892 20.3246 11.7702 20.4178 11.282 20.495C11.038 20.5336 10.8253 20.5684 10.6624 20.597C10.5123 20.6232 10.375 20.649 10.3057 20.6704L10.5271 21.387ZM15.4465 20.6341C17.98 20.5848 20.273 20.1256 21.9307 19.6801C22.7602 19.4571 23.4327 19.237 23.8988 19.0722C24.132 18.9898 24.3137 18.9211 24.4378 18.8728C24.4999 18.8486 24.5476 18.8295 24.5801 18.8163C24.5964 18.8097 24.6089 18.8045 24.6175 18.801C24.6218 18.7992 24.6252 18.7978 24.6275 18.7968C24.6287 18.7963 24.6296 18.7959 24.6303 18.7956C24.6307 18.7955 24.6309 18.7954 24.6312 18.7953C24.6313 18.7952 24.6314 18.7952 24.6314 18.7952C24.6315 18.7951 24.6316 18.7951 24.4858 18.4496C24.34 18.1041 24.3401 18.1041 24.3401 18.104C24.3401 18.104 24.3401 18.104 24.3401 18.104C24.3401 18.1041 24.34 18.1041 24.3398 18.1042C24.3395 18.1043 24.339 18.1045 24.3382 18.1048C24.3366 18.1055 24.3341 18.1066 24.3305 18.108C24.3235 18.111 24.3126 18.1154 24.2979 18.1214C24.2686 18.1333 24.2242 18.1511 24.1656 18.1739C24.0484 18.2196 23.8741 18.2855 23.6488 18.3651C23.1983 18.5244 22.5444 18.7385 21.736 18.9558C20.1176 19.3908 17.8872 19.8364 15.4319 19.8842L15.4465 20.6341ZM24.6543 18.7846C27.3286 17.4394 28.8513 15.8823 29.5927 14.27C30.335 12.6557 30.2704 11.0372 29.8692 9.6172C29.4693 8.20171 28.7315 6.96846 28.1017 6.0951C27.7856 5.65688 27.494 5.3055 27.2806 5.06287C27.1738 4.94147 27.0865 4.84708 27.0252 4.78243C26.9945 4.7501 26.9704 4.72519 26.9536 4.70804C26.9452 4.69946 26.9386 4.69282 26.9339 4.68816C26.9316 4.68584 26.9298 4.684 26.9285 4.68267C26.9278 4.682 26.9272 4.68146 26.9268 4.68105C26.9266 4.68084 26.9264 4.68062 26.9263 4.68052C26.9261 4.68033 26.9259 4.68018 26.6622 4.94678C26.3985 5.21338 26.3984 5.21328 26.3983 5.21322C26.3984 5.21325 26.3983 5.21322 26.3984 5.21326C26.3985 5.21334 26.3987 5.21355 26.399 5.21389C26.3997 5.21455 26.4008 5.21571 26.4025 5.21735C26.4058 5.22064 26.4109 5.22589 26.418 5.23303C26.432 5.24733 26.4532 5.26925 26.4809 5.29845C26.5363 5.35687 26.6173 5.44435 26.7174 5.55817C26.9178 5.78598 27.1938 6.11844 27.4934 6.53381C28.0947 7.36763 28.78 8.52057 29.1475 9.82111C29.5136 11.1171 29.5606 12.5445 28.9113 13.9567C28.261 15.371 26.8888 16.8211 24.3173 18.1146L24.6543 18.7846ZM17.8546 5.55223C18.0689 5.56329 18.2775 5.79016 18.2623 6.02803L19.0107 6.07588C19.0516 5.43592 18.5395 4.83659 17.8933 4.80322L17.8546 5.55223ZM18.2623 6.02803C18.2472 6.26346 18.0159 6.45439 17.8046 6.43463L17.7348 7.18138C18.3818 7.24188 18.9697 6.7183 19.0107 6.07588L18.2623 6.02803ZM17.8046 6.43463C17.5766 6.41331 17.3743 6.16963 17.3953 5.94784L16.6487 5.87687C16.5874 6.52201 17.1045 7.12244 17.7348 7.18138L17.8046 6.43463ZM17.3956 5.94441C17.4135 5.73686 17.6327 5.54087 17.8548 5.55224L17.8931 4.80322C17.2725 4.77145 16.7012 5.26505 16.6484 5.8803L17.3956 5.94441ZM15.916 8.04797C15.6744 8.02548 15.4997 7.81984 15.5096 7.59142L14.7603 7.55917C14.733 8.19198 15.212 8.73568 15.8465 8.79474L15.916 8.04797ZM15.5094 7.59528C15.5206 7.38492 15.7493 7.17483 15.9832 7.18937L16.0297 6.44082C15.3947 6.40133 14.7947 6.91405 14.7604 7.55531L15.5094 7.59528ZM15.9793 7.18911C16.215 7.20621 16.3979 7.41375 16.3768 7.66572L17.1242 7.72824C17.1795 7.06784 16.6932 6.48892 16.0336 6.44108L15.9793 7.18911ZM16.3763 7.67306C16.3604 7.92208 16.1776 8.07702 15.9228 8.04866L15.8398 8.79406C16.5137 8.86906 17.0811 8.40348 17.1248 7.72091L16.3763 7.67306ZM24.672 9.57897C24.8865 9.59453 25.0833 9.80919 25.0639 10.0723L25.8118 10.1276C25.8592 9.48665 25.3891 8.87902 24.7263 8.83094L24.672 9.57897ZM25.0639 10.0723C25.0462 10.3112 24.8456 10.4804 24.6021 10.4554L24.5256 11.2015C25.1845 11.269 25.7627 10.7928 25.8118 10.1276L25.0639 10.0723ZM24.6028 10.4555C24.3703 10.4312 24.1877 10.21 24.2013 9.99804L23.4528 9.95019C23.4125 10.5802 23.9087 11.1372 24.5249 11.2015L24.6028 10.4555ZM24.2013 9.99804C24.2073 9.90403 24.2617 9.79153 24.364 9.70099C24.4662 9.61046 24.5816 9.57241 24.672 9.57897L24.7263 8.83094C24.3959 8.80698 24.0887 8.943 23.8668 9.13943C23.6449 9.33585 23.4737 9.62319 23.4528 9.95019L24.2013 9.99804ZM22.7911 11.2243C23.0176 11.2432 23.2141 11.4638 23.2068 11.69L23.9564 11.7143C23.9767 11.0876 23.4766 10.5287 22.8532 10.4769L22.7911 11.2243ZM23.2068 11.6898C23.1998 11.902 22.9821 12.1081 22.7376 12.0929L22.6909 12.8414C23.3333 12.8815 23.9347 12.3731 23.9564 11.7145L23.2068 11.6898ZM22.7452 12.0934C22.5045 12.0735 22.3384 11.883 22.3513 11.6419L21.6024 11.6016C21.5676 12.2479 22.0383 12.7875 22.6834 12.8409L22.7452 12.0934ZM22.3513 11.6421C22.3661 11.3705 22.5669 11.2081 22.795 11.2246L22.8493 10.4766C22.1821 10.4282 21.6388 10.9318 21.6024 11.6014L22.3513 11.6421ZM19.0738 14.4824C19.3392 14.499 19.5047 14.6933 19.4918 14.9311L20.2407 14.9715C20.2768 14.3039 19.778 13.7751 19.1208 13.7338L19.0738 14.4824ZM19.4918 14.9312C19.4799 15.1533 19.2581 15.3523 19.027 15.3379L18.9804 16.0864C19.6182 16.1261 20.206 15.6188 20.2407 14.9714L19.4918 14.9312ZM19.0308 15.3381C18.8117 15.3222 18.6179 15.1047 18.6272 14.8862L17.8779 14.8543C17.8513 15.4791 18.3542 16.041 18.9766 16.0862L19.0308 15.3381ZM18.6275 14.8795C18.6334 14.6404 18.8183 14.4663 19.0738 14.4824L19.1208 13.7338C18.4535 13.6919 17.8944 14.1839 17.8777 14.861L18.6275 14.8795ZM20.9376 12.867C21.1593 12.8903 21.3546 13.1206 21.3433 13.3334L22.0922 13.3732C22.1252 12.7522 21.6251 12.1851 21.0159 12.1212L20.9376 12.867ZM21.3433 13.3334C21.3388 13.4182 21.2876 13.5262 21.1832 13.6159C21.0788 13.7056 20.9614 13.7423 20.8732 13.735L20.8109 14.4824C21.1386 14.5097 21.448 14.3772 21.672 14.1847C21.8959 13.9922 22.0746 13.7052 22.0922 13.3732L21.3433 13.3334ZM20.8729 13.7349C20.6326 13.7151 20.4532 13.5076 20.4719 13.2544L19.724 13.1991C19.6759 13.8501 20.1479 14.4277 20.8112 14.4824L20.8729 13.7349ZM20.4717 13.258C20.4924 13.0099 20.6971 12.8424 20.9385 12.8671L21.015 12.1211C20.3539 12.0533 19.7798 12.5313 19.7243 13.1955L20.4717 13.258ZM23.0302 7.70497C23.2572 7.7262 23.4437 7.94424 23.4317 8.17078L24.1806 8.21076C24.214 7.58569 23.7313 7.01726 23.1 6.95823L23.0302 7.70497ZM23.4315 8.17433C23.4219 8.39297 23.2288 8.57645 22.9623 8.55452L22.9008 9.30199C23.5558 9.3559 24.151 8.88563 24.1808 8.20721L23.4315 8.17433ZM22.9624 8.55452C22.7192 8.53446 22.5656 8.36105 22.5821 8.10327L21.8336 8.05541C21.7917 8.7113 22.2403 9.2475 22.9007 9.30199L22.9624 8.55452ZM22.5823 8.09963C22.596 7.84678 22.79 7.68281 23.0306 7.70501L23.0996 6.95819C22.4282 6.89624 21.8697 7.38861 21.8334 8.05905L22.5823 8.09963ZM21.1049 10.2016C20.8511 10.1857 20.6807 9.99003 20.6967 9.73933L19.9482 9.69148C19.9058 10.3545 20.389 10.9081 21.0579 10.9501L21.1049 10.2016ZM20.6964 9.74311C20.715 9.49283 20.9462 9.30886 21.1501 9.32793L21.22 8.58118C20.5656 8.52 19.9956 9.05184 19.9485 9.6877L20.6964 9.74311ZM21.1496 9.32788C21.2357 9.33605 21.3446 9.39033 21.4366 9.49501C21.5286 9.59962 21.5708 9.71752 21.569 9.80773L22.3189 9.82232C22.325 9.50815 22.1889 9.2149 22 8.99992C21.8111 8.785 21.5367 8.61125 21.2205 8.58123L21.1496 9.32788ZM21.5691 9.80703C21.5649 10.0001 21.343 10.2164 21.1047 10.2016L21.0581 10.9502C21.6888 10.9894 22.305 10.4746 22.3189 9.82303L21.5691 9.80703ZM19.2708 10.9734C19.4929 10.9849 19.7021 11.2199 19.688 11.4409L20.4364 11.4888C20.4773 10.8499 19.9479 10.2574 19.3095 10.2244L19.2708 10.9734ZM19.6877 11.4448C19.6762 11.6603 19.4584 11.8575 19.218 11.8376L19.1561 12.585C19.8014 12.6384 20.4016 12.1389 20.4367 11.4849L19.6877 11.4448ZM19.218 11.8376C18.9829 11.8181 18.8092 11.6228 18.8195 11.3863L18.0702 11.3538C18.0423 11.9964 18.5234 12.5326 19.1561 12.585L19.218 11.8376ZM18.8191 11.394C18.8363 11.1256 19.0421 10.9569 19.263 10.9729L19.3173 10.2249C18.6429 10.176 18.1119 10.7008 18.0706 11.3461L18.8191 11.394ZM17.3408 13.4788C17.1205 13.4582 16.9193 13.2132 16.9404 12.9929L16.1938 12.9214C16.1336 13.5501 16.633 14.1659 17.2709 14.2255L17.3408 13.4788ZM16.9405 12.9924C16.9618 12.7665 17.1748 12.5886 17.4206 12.6163L17.5047 11.8711C16.8575 11.798 16.256 12.263 16.1938 12.9219L16.9405 12.9924ZM17.42 12.6163C17.6506 12.6427 17.8278 12.8603 17.8112 13.0827L18.5592 13.1384C18.606 12.5104 18.1319 11.9429 17.5053 11.8711L17.42 12.6163ZM17.8112 13.0828C17.7945 13.3078 17.5696 13.5001 17.3406 13.4788L17.2711 14.2256C17.9183 14.2858 18.5114 13.7815 18.5592 13.1383L17.8112 13.0828ZM21.3781 5.80786C21.4624 5.81307 21.5738 5.8663 21.6678 5.9756C21.7617 6.08485 21.7999 6.20583 21.7934 6.29362L22.5413 6.34952C22.5658 6.02111 22.4293 5.71095 22.2365 5.48668C22.0437 5.26247 21.7565 5.0798 21.4243 5.05929L21.3781 5.80786ZM21.7937 6.28933C21.7863 6.37569 21.7342 6.48048 21.6352 6.56618C21.5366 6.65156 21.4228 6.69056 21.3296 6.68583L21.2917 7.43487C21.6109 7.45106 21.9081 7.32189 22.126 7.13326C22.3436 6.94494 22.5137 6.66989 22.5409 6.35381L21.7937 6.28933ZM21.3264 6.68568C21.0953 6.67595 20.9016 6.46394 20.917 6.22316L20.1685 6.1753C20.1267 6.83028 20.638 7.40734 21.2949 7.43502L21.3264 6.68568ZM20.9167 6.22694C20.935 5.9807 21.1563 5.79407 21.3779 5.80785L21.4244 5.0593C20.7771 5.01905 20.2162 5.53161 20.1688 6.17153L20.9167 6.22694ZM19.4877 7.44808C19.7251 7.46284 19.9295 7.69938 19.9181 7.91143L20.6671 7.9514C20.7012 7.31183 20.1659 6.73879 19.5343 6.69952L19.4877 7.44808ZM19.9182 7.91127C19.9062 8.13372 19.7085 8.31849 19.4493 8.29968L19.3951 9.04772C20.049 9.09515 20.6313 8.61656 20.6671 7.95156L19.9182 7.91127ZM19.453 8.29997C19.1919 8.27848 19.0324 8.08472 19.0551 7.84039L18.3084 7.77076C18.2453 8.44711 18.731 8.99308 19.3915 9.04744L19.453 8.29997ZM19.0557 7.83344C19.0724 7.60952 19.2669 7.4367 19.4917 7.4483L19.5303 6.6993C18.8946 6.66648 18.3545 7.1513 18.3078 7.77771L19.0557 7.83344ZM15.748 10.7134C15.9813 10.7257 16.17 10.9304 16.1563 11.184L16.9052 11.2244C16.9404 10.5726 16.4504 9.99923 15.7873 9.96444L15.748 10.7134ZM16.1563 11.184C16.1433 11.4257 15.9456 11.5981 15.7044 11.5782L15.6427 12.3257C16.3051 12.3803 16.8694 11.8881 16.9052 11.2244L16.1563 11.184ZM15.7045 11.5782C15.4741 11.5591 15.2755 11.3206 15.2942 11.1011L14.5469 11.0377C14.4926 11.6768 15.0051 12.2728 15.6426 12.3257L15.7045 11.5782ZM15.2945 11.0974C15.3095 10.8974 15.5301 10.7 15.7446 10.7132L15.7908 9.96464C15.172 9.92644 14.5926 10.4269 14.5466 11.0414L15.2945 11.0974ZM17.6314 9.06826C17.8454 9.08609 18.0453 9.31525 18.0339 9.52967L18.7828 9.56947C18.8158 8.95019 18.3117 8.37236 17.6937 8.32085L17.6314 9.06826ZM18.0336 9.53676C18.0254 9.77589 17.8317 9.95276 17.5871 9.93745L17.5403 10.686C18.2004 10.7273 18.7603 10.2299 18.7832 9.56238L18.0336 9.53676ZM17.5872 9.93746C17.3274 9.92115 17.1524 9.71831 17.1655 9.47497L16.4166 9.43453C16.3808 10.0966 16.8773 10.6444 17.5402 10.686L17.5872 9.93746ZM17.1653 9.47868C17.1712 9.38546 17.2248 9.27591 17.3256 9.18793C17.4265 9.09996 17.5423 9.06181 17.6355 9.06857L17.6897 8.32053C17.3621 8.29677 17.0556 8.42822 16.8326 8.62273C16.6096 8.81723 16.4378 9.10304 16.4168 9.43083L17.1653 9.47868ZM14.7456 18.1214C13.595 18.1808 12.2936 18.1415 11.0921 18.5794L11.3489 19.2841C12.4127 18.8964 13.5437 18.9345 14.7843 18.8704L14.7456 18.1214ZM11.1013 18.5762C11.1651 18.5548 11.2159 18.5606 11.2359 18.564C11.2573 18.5676 11.268 18.5728 11.2653 18.5716C11.2592 18.569 11.2402 18.5588 11.2101 18.5376C11.1824 18.5182 11.1555 18.4967 11.1347 18.4792C11.1245 18.4707 11.1165 18.4637 11.1113 18.4591C11.1088 18.4568 11.1069 18.4551 11.1059 18.4542C11.1055 18.4538 11.1052 18.4535 11.1051 18.4535C11.1051 18.4535 11.1051 18.4535 11.1052 18.4536C11.1053 18.4536 11.1053 18.4537 11.1054 18.4538C11.1054 18.4538 11.1055 18.4538 11.1055 18.4539C11.1055 18.4539 11.1056 18.4539 11.1056 18.4539C11.1056 18.454 11.1057 18.454 10.8512 18.7295C10.5968 19.0049 10.5968 19.005 10.5968 19.005C10.5969 19.005 10.5969 19.005 10.5969 19.0051C10.597 19.0051 10.597 19.0052 10.5971 19.0052C10.5973 19.0054 10.5974 19.0055 10.5976 19.0057C10.5979 19.006 10.5983 19.0064 10.5988 19.0068C10.5997 19.0076 10.6009 19.0087 10.6023 19.01C10.6052 19.0126 10.6091 19.0161 10.6138 19.0203C10.6232 19.0286 10.6363 19.04 10.6522 19.0534C10.6833 19.0796 10.728 19.1155 10.7789 19.1513C10.8273 19.1853 10.8938 19.2281 10.9673 19.2599C11.02 19.2827 11.1711 19.3438 11.3398 19.2873L11.1013 18.5762ZM10.8512 18.7295C11.1228 18.4708 11.1228 18.4709 11.1229 18.4709C11.1229 18.471 11.1229 18.471 11.123 18.471C11.123 18.4711 11.1231 18.4712 11.1231 18.4712C11.1232 18.4713 11.1233 18.4714 11.1234 18.4715C11.1235 18.4717 11.1236 18.4717 11.1236 18.4717C11.1236 18.4718 11.1234 18.4715 11.123 18.471C11.122 18.47 11.1202 18.468 11.1176 18.4651C11.1123 18.4592 11.1042 18.45 11.0944 18.4383C11.0741 18.4139 11.0503 18.3829 11.0304 18.3516C11.0083 18.3169 11.0024 18.2995 11.0026 18.3001C11.0031 18.302 11.0078 18.3191 11.0061 18.3471C11.0043 18.3776 10.9949 18.4205 10.967 18.4638L10.3367 18.0572C10.229 18.2242 10.2521 18.3991 10.2792 18.498C10.3074 18.6012 10.3576 18.6913 10.3978 18.7544C10.4402 18.821 10.4849 18.8783 10.5176 18.9176C10.5344 18.9378 10.5488 18.9543 10.5595 18.9662C10.5649 18.9722 10.5694 18.9771 10.5728 18.9808C10.5745 18.9826 10.5759 18.9841 10.5771 18.9854C10.5777 18.986 10.5782 18.9865 10.5786 18.987C10.5788 18.9872 10.579 18.9874 10.5792 18.9876C10.5793 18.9877 10.5793 18.9878 10.5794 18.9878C10.5795 18.9879 10.5795 18.9879 10.5795 18.988C10.5796 18.988 10.5797 18.9881 10.8512 18.7295ZM10.9677 18.4627C11.4101 17.7717 11.6243 17.003 11.7735 16.2497C11.8479 15.8738 11.9082 15.4903 11.9699 15.1226C12.0323 14.751 12.097 14.3909 12.1819 14.0423L11.4533 13.8647C11.3615 14.2413 11.2932 14.624 11.2303 14.9984C11.1668 15.3768 11.1094 15.7423 11.0378 16.1039C10.8948 16.8256 10.7029 17.4853 10.336 18.0583L10.9677 18.4627ZM12.182 14.0422C12.2632 13.7087 12.3038 13.4432 12.4249 13.139L11.728 12.8618C11.5811 13.2311 11.5184 13.597 11.4532 13.8648L12.182 14.0422ZM11.7204 13.1181C12.1797 14.5078 12.7111 15.5714 13.4661 16.456C14.2212 17.3408 15.1803 18.0236 16.4603 18.6814L16.8031 18.0143C15.5752 17.3833 14.707 16.7547 14.0366 15.9691C13.366 15.1833 12.8737 14.2176 12.4325 12.8827L11.7204 13.1181ZM16.5421 17.9837C15.9686 18.1248 15.4093 18.0916 14.7482 18.1213L14.7818 18.8705C15.3474 18.8452 16.0521 18.8766 16.7213 18.712L16.5421 17.9837ZM22.5241 15.632C22.3065 15.6162 22.1148 15.4115 22.1319 15.1439L21.3835 15.0961C21.3422 15.7422 21.8101 16.3322 22.4699 16.3801L22.5241 15.632ZM22.1317 15.1475C22.1424 15.0021 22.1986 14.9076 22.2656 14.851C22.333 14.7941 22.4392 14.752 22.5921 14.7646L22.6534 14.0171C22.3276 13.9904 22.0186 14.078 21.7817 14.278C21.5445 14.4783 21.4076 14.768 21.3837 15.0925L22.1317 15.1475ZM22.5918 14.7645C22.8241 14.7838 23.0002 14.9855 22.9903 15.216L23.7396 15.2482C23.7667 14.6174 23.2892 14.0698 22.6537 14.0171L22.5918 14.7645ZM22.9907 15.2082C22.9842 15.3096 22.9284 15.4231 22.8288 15.5119C22.729 15.6009 22.6153 15.6386 22.5241 15.632L22.4699 16.3801C22.7994 16.404 23.106 16.2697 23.3281 16.0716C23.5504 15.8733 23.7182 15.5845 23.7392 15.256L22.9907 15.2082ZM24.3864 13.9899C24.1598 13.9686 23.9662 13.7453 23.9755 13.5283L23.2261 13.4964C23.1995 14.1228 23.7026 14.6789 24.3163 14.7366L24.3864 13.9899ZM23.9754 13.5285C23.9848 13.3106 24.2079 13.1068 24.4359 13.121L24.4825 12.3724C23.8416 12.3326 23.2538 12.8529 23.2261 13.4962L23.9754 13.5285ZM24.4358 13.121C24.6804 13.1363 24.8635 13.3462 24.8481 13.5881L25.5966 13.6359C25.6384 12.982 25.1427 12.4138 24.4826 12.3724L24.4358 13.121ZM24.8483 13.5843C24.8306 13.824 24.613 14.0086 24.3823 13.9895L24.3204 14.7369C24.9754 14.7911 25.5484 14.2861 25.5963 13.6397L24.8483 13.5843ZM10.4033 21.0232C10.4221 20.6487 10.4213 20.6487 10.4205 20.6486C10.4203 20.6486 10.4195 20.6486 10.419 20.6486C10.4179 20.6485 10.4169 20.6485 10.4159 20.6484C10.4138 20.6484 10.4116 20.6483 10.4095 20.6483C10.4052 20.6482 10.4009 20.6482 10.3964 20.6483C10.3875 20.6484 10.3782 20.6488 10.3686 20.6495C10.3493 20.6509 10.3283 20.6535 10.3055 20.6576C10.2601 20.6659 10.206 20.6802 10.1411 20.7036C10.0123 20.7501 9.83204 20.8357 9.58035 20.9928C9.0779 21.3064 8.26281 21.923 6.96683 23.1428L7.48088 23.6889C8.75916 22.4857 9.53378 21.906 9.97747 21.629C10.1988 21.4909 10.3307 21.4326 10.3958 21.4091C10.4279 21.3975 10.4412 21.3953 10.439 21.3957C10.4377 21.3959 10.4323 21.3968 10.4231 21.3975C10.4185 21.3978 10.4129 21.3981 10.4065 21.3982C10.4033 21.3982 10.3998 21.3982 10.3961 21.3982C10.3943 21.3981 10.3924 21.3981 10.3904 21.398C10.3895 21.398 10.3885 21.3979 10.3875 21.3979C10.387 21.3979 10.3862 21.3978 10.386 21.3978C10.3852 21.3978 10.3845 21.3978 10.4033 21.0232ZM6.96323 23.1462L3.9148 26.0928L4.43604 26.6321L7.48448 23.6855L6.96323 23.1462ZM4.17542 26.3624C3.85214 26.1724 3.85216 26.1724 3.85218 26.1723C3.85218 26.1723 3.8522 26.1723 3.8522 26.1723C3.85221 26.1723 3.85221 26.1723 3.85219 26.1723C3.85215 26.1724 3.85206 26.1725 3.85192 26.1728C3.85163 26.1733 3.85112 26.1741 3.8504 26.1753C3.84897 26.1777 3.84669 26.1816 3.84361 26.1867C3.83744 26.1969 3.82808 26.2124 3.81585 26.2322C3.79137 26.2719 3.75553 26.3289 3.71096 26.3968C3.62123 26.5335 3.49882 26.7101 3.36441 26.8769C3.22641 27.0482 3.09147 27.1893 2.97856 27.2712C2.83926 27.3722 2.86419 27.2955 2.95245 27.3418L2.60446 28.0062C2.93204 28.1777 3.25125 27.9998 3.41876 27.8784C3.61264 27.7379 3.79704 27.5354 3.94844 27.3475C4.10345 27.1551 4.24052 26.9568 4.33794 26.8084C4.38695 26.7337 4.42659 26.6707 4.4542 26.6259C4.46801 26.6035 4.47885 26.5857 4.48637 26.5731C4.49013 26.5669 4.49307 26.562 4.49514 26.5585C4.49617 26.5567 4.49699 26.5554 4.49758 26.5544C4.49788 26.5539 4.49812 26.5534 4.49831 26.5531C4.4984 26.553 4.49848 26.5528 4.49855 26.5527C4.49858 26.5527 4.49862 26.5526 4.49863 26.5526C4.49867 26.5525 4.4987 26.5525 4.17542 26.3624ZM2.77846 27.674C2.94477 27.3379 2.94481 27.3379 2.94486 27.3379C2.94486 27.3379 2.9449 27.3379 2.94492 27.3379C2.94496 27.338 2.94499 27.338 2.94501 27.338C2.94504 27.338 2.94503 27.338 2.94498 27.338C2.94486 27.3379 2.94457 27.3378 2.9441 27.3375C2.94316 27.3371 2.94152 27.3362 2.9392 27.3351C2.93457 27.3327 2.92727 27.329 2.91755 27.3239C2.8981 27.3138 2.86908 27.2985 2.83261 27.2784C2.7595 27.2383 2.65743 27.1797 2.54314 27.107C2.30866 26.958 2.04687 26.7647 1.8707 26.5627L1.3055 27.0557C1.5525 27.3389 1.88589 27.5779 2.14079 27.74C2.2712 27.8229 2.38738 27.8895 2.47133 27.9357C2.5134 27.9588 2.54762 27.9769 2.57178 27.9895C2.58387 27.9958 2.59346 28.0007 2.60027 28.0041C2.60368 28.0058 2.6064 28.0072 2.60839 28.0082C2.60938 28.0087 2.6102 28.0091 2.61082 28.0094C2.61114 28.0096 2.61141 28.0097 2.61163 28.0098C2.61174 28.0099 2.61184 28.0099 2.61192 28.01C2.61196 28.01 2.61202 28.01 2.61204 28.01C2.6121 28.01 2.61215 28.0101 2.77846 27.674ZM1.8707 26.5627C1.69453 26.3607 1.53857 26.0751 1.42274 25.8225C1.36629 25.6994 1.32213 25.5904 1.29225 25.5125C1.27734 25.4736 1.26609 25.4428 1.25872 25.4221C1.25504 25.4118 1.25233 25.4041 1.25064 25.3992C1.24979 25.3967 1.2492 25.395 1.24886 25.394C1.24869 25.3935 1.24858 25.3932 1.24854 25.3931C1.24852 25.393 1.24852 25.393 1.24853 25.393C1.24854 25.393 1.24855 25.3931 1.24856 25.3931C1.24857 25.3931 1.24858 25.3932 1.24859 25.3932C1.2486 25.3932 1.24862 25.3933 0.893039 25.5124C0.537459 25.6315 0.537476 25.6316 0.537495 25.6316C0.537504 25.6316 0.537522 25.6317 0.537537 25.6318C0.537569 25.6318 0.537605 25.6319 0.537642 25.6321C0.537723 25.6323 0.537818 25.6326 0.537928 25.6329C0.538153 25.6336 0.538444 25.6344 0.538804 25.6355C0.539519 25.6376 0.540504 25.6405 0.54175 25.6441C0.544246 25.6513 0.547797 25.6615 0.552375 25.6743C0.56153 25.6999 0.574821 25.7363 0.592015 25.7811C0.626333 25.8706 0.6766 25.9947 0.741014 26.1352C0.866926 26.4097 1.0585 26.7725 1.3055 27.0557L1.8707 26.5627ZM1.24578 25.3851C1.27959 25.4789 1.2003 25.4932 1.31926 25.3689C1.4157 25.2681 1.57382 25.1536 1.76227 25.0401C1.94581 24.9296 2.1374 24.8323 2.28501 24.762C2.35833 24.7271 2.41969 24.6993 2.46235 24.6805C2.48365 24.671 2.50023 24.6639 2.51122 24.6591C2.51672 24.6568 2.52081 24.6551 2.5234 24.654C2.5247 24.6534 2.52561 24.653 2.52614 24.6528C2.5264 24.6527 2.52657 24.6526 2.52664 24.6526C2.52667 24.6526 2.52668 24.6526 2.52666 24.6526C2.52665 24.6526 2.52662 24.6526 2.52662 24.6526C2.52658 24.6526 2.52653 24.6526 2.38217 24.3065C2.23781 23.9604 2.23776 23.9605 2.23769 23.9605C2.23766 23.9605 2.23759 23.9605 2.23753 23.9606C2.23742 23.9606 2.23727 23.9607 2.2371 23.9607C2.23676 23.9609 2.23632 23.9611 2.23578 23.9613C2.2347 23.9617 2.23323 23.9624 2.23136 23.9632C2.22763 23.9647 2.22236 23.967 2.21565 23.9698C2.20223 23.9756 2.18305 23.9839 2.15899 23.9946C2.11089 24.0158 2.04303 24.0465 1.96241 24.0849C1.80216 24.1613 1.58709 24.2702 1.37543 24.3976C1.16867 24.5221 0.943047 24.6773 0.777457 24.8503C0.634403 24.9997 0.414801 25.2918 0.54029 25.6397L1.24578 25.3851ZM2.61391 24.6014L5.94725 21.9814L5.48379 21.3918L2.15044 24.0117L2.61391 24.6014ZM5.94316 21.9846C7.32271 20.9307 8.04866 20.2039 8.43338 19.7267C8.6263 19.4874 8.73742 19.306 8.80183 19.1728C8.83418 19.106 8.85522 19.0503 8.86883 19.0048C8.87563 18.982 8.8806 18.9617 8.88417 18.9437C8.88596 18.9347 8.8874 18.9264 8.88855 18.9186C8.88912 18.9147 8.88963 18.9109 8.89006 18.9073C8.89028 18.9055 8.89048 18.9037 8.89067 18.902C8.89076 18.9011 8.89085 18.9003 8.89094 18.8994C8.89098 18.899 8.89104 18.8984 8.89106 18.8982C8.89112 18.8975 8.89118 18.8969 8.51784 18.8617C8.1445 18.8264 8.14456 18.8258 8.14462 18.8252C8.14464 18.825 8.1447 18.8244 8.14474 18.824C8.14482 18.8232 8.14491 18.8224 8.14499 18.8216C8.14516 18.8201 8.14533 18.8186 8.1455 18.8171C8.14585 18.8142 8.14621 18.8116 8.14657 18.8091C8.14729 18.8043 8.14801 18.8003 8.14862 18.7972C8.14984 18.7911 8.15064 18.7887 8.15021 18.7901C8.14932 18.793 8.14358 18.8113 8.1267 18.8462C8.09266 18.9165 8.01558 19.0499 7.8495 19.2559C7.51624 19.6693 6.84103 20.3549 5.48787 21.3886L5.94316 21.9846ZM8.51784 18.8617C8.15187 18.9435 8.1519 18.9436 8.15193 18.9437C8.15194 18.9438 8.15197 18.9439 8.15199 18.944C8.15203 18.9442 8.15207 18.9444 8.15212 18.9446C8.15221 18.945 8.15232 18.9454 8.15243 18.9459C8.15265 18.9469 8.15291 18.948 8.1532 18.9492C8.15379 18.9518 8.15453 18.9549 8.15544 18.9585C8.15725 18.9658 8.1597 18.9754 8.16288 18.9871C8.16924 19.0104 8.17853 19.0423 8.19141 19.0817C8.21715 19.1604 8.25732 19.2693 8.3173 19.4C8.43726 19.6614 8.63678 20.0108 8.95888 20.38L9.52408 19.887C9.25541 19.579 9.09312 19.2924 8.99895 19.0872C8.95186 18.9846 8.92189 18.9025 8.90427 18.8486C8.89545 18.8217 8.88975 18.8018 8.88653 18.79C8.88493 18.7841 8.88395 18.7803 8.88352 18.7785C8.88331 18.7777 8.88323 18.7773 8.88329 18.7776C8.88331 18.7777 8.88337 18.7779 8.88346 18.7783C8.8835 18.7785 8.88355 18.7787 8.88362 18.779C8.88365 18.7791 8.88368 18.7793 8.88371 18.7794C8.88373 18.7795 8.88375 18.7796 8.88376 18.7796C8.88379 18.7798 8.88382 18.7799 8.51784 18.8617ZM8.95888 20.38C8.96875 20.3914 9.16928 20.6132 9.42232 20.8411C9.54887 20.9551 9.69604 21.0775 9.84434 21.1767C9.98062 21.2679 10.1657 21.3729 10.3596 21.3957L10.447 20.6508C10.4502 20.6512 10.4344 20.6493 10.396 20.6315C10.3596 20.6146 10.3144 20.5888 10.2614 20.5533C10.1548 20.482 10.0374 20.3858 9.92429 20.2839C9.6979 20.08 9.5184 19.8805 9.52408 19.887L8.95888 20.38ZM2.78468 25.697C2.8638 25.8226 2.9561 25.9388 3.04337 26.0389L3.60857 25.5459C3.53663 25.4634 3.47086 25.3791 3.41933 25.2973L2.78468 25.697ZM3.04337 26.0389C3.13064 26.1389 3.23323 26.2461 3.34695 26.3416L3.8291 25.7671C3.75504 25.7049 3.68051 25.6283 3.60857 25.5459L3.04337 26.0389ZM3.34695 26.3416C3.47214 26.4467 3.6238 26.5252 3.6995 26.57L4.08146 25.9245C3.94918 25.8463 3.89171 25.8196 3.8291 25.7671L3.34695 26.3416ZM3.6995 26.57C3.82788 26.646 3.95927 26.7004 4.07107 26.7496L4.37309 26.0631C4.23994 26.0045 4.16106 25.9717 4.08146 25.9245L3.6995 26.57ZM3.93948 26.6528C3.93948 26.6528 3.93949 26.6528 3.9395 26.6528C3.93951 26.6528 3.93952 26.6529 3.93952 26.6529C3.93953 26.6529 3.93954 26.6529 3.93955 26.6529C3.93956 26.6529 3.93957 26.6529 3.93957 26.6529C3.93958 26.6529 3.93959 26.6529 3.9396 26.6529C3.93961 26.653 3.93961 26.653 3.93962 26.653C3.93963 26.653 3.93964 26.653 3.93965 26.653C3.93965 26.653 3.93966 26.653 3.93967 26.653C3.93968 26.653 3.93969 26.653 3.93969 26.6531C3.9397 26.6531 3.93971 26.6531 3.93972 26.6531C3.93972 26.6531 3.93973 26.6531 3.93974 26.6531C3.93975 26.6531 3.93976 26.6531 3.93976 26.6531C3.93977 26.6531 3.93978 26.6532 3.93979 26.6532C3.93979 26.6532 3.9398 26.6532 3.93981 26.6532C3.93982 26.6532 3.93983 26.6532 3.93983 26.6532C3.93984 26.6532 3.93985 26.6532 3.93986 26.6532C3.93986 26.6533 3.93987 26.6533 3.93988 26.6533C3.93989 26.6533 3.9399 26.6533 3.9399 26.6533C3.93991 26.6533 3.93992 26.6533 3.93993 26.6533C3.93993 26.6533 3.93994 26.6533 3.93995 26.6533C3.93996 26.6534 3.93996 26.6534 3.93997 26.6534C3.93998 26.6534 3.93999 26.6534 3.93999 26.6534C3.94 26.6534 3.94001 26.6534 3.94002 26.6534C3.94002 26.6534 3.94003 26.6534 3.94004 26.6535C3.94005 26.6535 3.94005 26.6535 3.94006 26.6535C3.94007 26.6535 3.94007 26.6535 3.94008 26.6535C3.94009 26.6535 3.9401 26.6535 3.9401 26.6535C3.94011 26.6535 3.94012 26.6535 3.94013 26.6536C3.94013 26.6536 3.94014 26.6536 3.94015 26.6536C3.94016 26.6536 3.94016 26.6536 3.94017 26.6536C3.94018 26.6536 3.94018 26.6536 3.94019 26.6536C3.9402 26.6536 3.94021 26.6536 3.94021 26.6537C3.94022 26.6537 3.94023 26.6537 3.94023 26.6537C3.94024 26.6537 3.94025 26.6537 3.94026 26.6537C3.94026 26.6537 3.94027 26.6537 3.94028 26.6537C3.94028 26.6537 3.94029 26.6537 3.9403 26.6538C3.94031 26.6538 3.94031 26.6538 3.94032 26.6538C3.94033 26.6538 3.94033 26.6538 3.94034 26.6538C3.94035 26.6538 3.94036 26.6538 3.94036 26.6538C3.94037 26.6538 3.94038 26.6538 3.94038 26.6538C3.94039 26.6539 3.9404 26.6539 3.9404 26.6539C3.94041 26.6539 3.94042 26.6539 3.94042 26.6539C3.94043 26.6539 3.94044 26.6539 3.94045 26.6539C3.94045 26.6539 3.94046 26.6539 3.94047 26.6539C3.94047 26.654 3.94048 26.654 3.94049 26.654C3.94049 26.654 3.9405 26.654 3.94051 26.654C3.94051 26.654 3.94052 26.654 3.94053 26.654C3.94053 26.654 3.94054 26.654 3.94055 26.654C3.94055 26.654 3.94056 26.6541 3.94057 26.6541C3.94057 26.6541 3.94058 26.6541 3.94059 26.6541C3.94059 26.6541 3.9406 26.6541 3.94061 26.6541C3.94061 26.6541 3.94062 26.6541 3.94063 26.6541C3.94063 26.6541 3.94064 26.6541 3.94065 26.6541C3.94065 26.6542 3.94066 26.6542 3.94067 26.6542C3.94067 26.6542 3.94068 26.6542 3.94069 26.6542C3.94069 26.6542 3.9407 26.6542 3.94071 26.6542C3.94071 26.6542 3.94072 26.6542 3.94073 26.6542C3.94073 26.6542 3.94074 26.6543 3.94074 26.6543C3.94075 26.6543 3.94076 26.6543 3.94076 26.6543C3.94077 26.6543 3.94078 26.6543 3.94078 26.6543C3.94079 26.6543 3.9408 26.6543 3.9408 26.6543C3.94081 26.6543 3.94081 26.6543 3.94082 26.6543C3.94083 26.6544 3.94083 26.6544 3.94084 26.6544C3.94085 26.6544 3.94085 26.6544 3.94086 26.6544C3.94087 26.6544 3.94087 26.6544 3.94088 26.6544C3.94088 26.6544 3.94089 26.6544 3.9409 26.6544C3.9409 26.6544 3.94091 26.6544 3.94091 26.6545C3.94092 26.6545 3.94093 26.6545 3.94093 26.6545C3.94094 26.6545 3.94095 26.6545 3.94095 26.6545C3.94096 26.6545 3.94096 26.6545 3.94097 26.6545C3.94098 26.6545 3.94098 26.6545 3.94099 26.6545C3.94099 26.6545 3.941 26.6546 3.94101 26.6546C3.94101 26.6546 3.94102 26.6546 3.94102 26.6546C3.94103 26.6546 3.94104 26.6546 3.94104 26.6546C3.94105 26.6546 3.94105 26.6546 3.94106 26.6546C3.94107 26.6546 3.94107 26.6546 3.94108 26.6546C3.94108 26.6547 3.94109 26.6547 3.9411 26.6547C3.9411 26.6547 3.94111 26.6547 3.94111 26.6547C3.94112 26.6547 3.94113 26.6547 3.94113 26.6547C3.94114 26.6547 3.94114 26.6547 3.94115 26.6547C3.94116 26.6547 3.94116 26.6547 3.94117 26.6547C3.94117 26.6548 3.94118 26.6548 3.94118 26.6548C3.94119 26.6548 3.9412 26.6548 3.9412 26.6548C3.94121 26.6548 3.94121 26.6548 3.94122 26.6548C3.94122 26.6548 3.94123 26.6548 3.94124 26.6548C3.94124 26.6548 3.94125 26.6548 3.94125 26.6548C3.94126 26.6548 3.94126 26.6549 3.94127 26.6549C3.94127 26.6549 3.94128 26.6549 3.94129 26.6549C3.94129 26.6549 3.9413 26.6549 3.9413 26.6549C3.94131 26.6549 3.94131 26.6549 3.94132 26.6549C3.94133 26.6549 3.94133 26.6549 3.94134 26.6549C3.94134 26.6549 3.94135 26.655 3.94135 26.655C3.94136 26.655 3.94136 26.655 3.94137 26.655C3.94138 26.655 3.94138 26.655 3.94139 26.655C3.94139 26.655 3.9414 26.655 3.9414 26.655C3.94141 26.655 3.94141 26.655 3.94142 26.655C3.94142 26.655 3.94143 26.655 3.94143 26.6551C3.94144 26.6551 3.94145 26.6551 3.94145 26.6551C3.94146 26.6551 3.94146 26.6551 3.94147 26.6551C3.94147 26.6551 3.94148 26.6551 3.94148 26.6551C3.94149 26.6551 3.94149 26.6551 3.9415 26.6551C3.9415 26.6551 3.94151 26.6551 3.94151 26.6551C3.94152 26.6552 3.94152 26.6552 3.94153 26.6552C3.94154 26.6552 3.94154 26.6552 3.94155 26.6552C3.94155 26.6552 3.94156 26.6552 3.94156 26.6552C3.94157 26.6552 3.94157 26.6552 3.94158 26.6552C3.94158 26.6552 3.94159 26.6552 3.94159 26.6552C3.9416 26.6552 3.9416 26.6552 3.94161 26.6553C3.94161 26.6553 3.94162 26.6553 3.94162 26.6553C3.94163 26.6553 3.94163 26.6553 3.94164 26.6553C3.94164 26.6553 3.94165 26.6553 3.94165 26.6553C3.94166 26.6553 3.94166 26.6553 3.94167 26.6553C3.94167 26.6553 3.94168 26.6553 3.94168 26.6553C3.94169 26.6553 3.94169 26.6553 3.9417 26.6554C3.9417 26.6554 3.94171 26.6554 3.94171 26.6554C3.94172 26.6554 3.94172 26.6554 3.94173 26.6554C3.94173 26.6554 3.94174 26.6554 3.94174 26.6554C3.94175 26.6554 3.94175 26.6554 3.94176 26.6554C3.94176 26.6554 3.94177 26.6554 3.94177 26.6554C3.94178 26.6554 3.94178 26.6554 3.94179 26.6555C3.94179 26.6555 3.9418 26.6555 3.9418 26.6555C3.9418 26.6555 3.94181 26.6555 3.94181 26.6555C3.94182 26.6555 3.94182 26.6555 3.94183 26.6555C3.94183 26.6555 3.94184 26.6555 3.94184 26.6555C3.94185 26.6555 3.94185 26.6555 3.94186 26.6555C3.94186 26.6555 3.94187 26.6555 3.94187 26.6556C3.94188 26.6556 3.94188 26.6556 3.94188 26.6556C3.94189 26.6556 3.94189 26.6556 3.9419 26.6556C3.9419 26.6556 3.94191 26.6556 3.94191 26.6556C3.94192 26.6556 3.94192 26.6556 3.94193 26.6556C3.94193 26.6556 3.94193 26.6556 3.94194 26.6556C3.94194 26.6556 3.94195 26.6556 3.94195 26.6556C3.94196 26.6557 3.94196 26.6557 3.94197 26.6557C3.94197 26.6557 3.94198 26.6557 3.94198 26.6557C3.94198 26.6557 3.94199 26.6557 3.94199 26.6557C3.942 26.6557 3.942 26.6557 3.94201 26.6557C3.94201 26.6557 3.94202 26.6557 3.94202 26.6557C3.94202 26.6557 3.94203 26.6557 3.94203 26.6557C3.94204 26.6557 3.94204 26.6557 3.94205 26.6558C3.94205 26.6558 3.94205 26.6558 3.94206 26.6558C3.94206 26.6558 3.94207 26.6558 3.94207 26.6558C3.94208 26.6558 3.94208 26.6558 3.94208 26.6558C3.94209 26.6558 3.94209 26.6558 3.9421 26.6558C3.9421 26.6558 3.94211 26.6558 3.94211 26.6558C3.94211 26.6558 3.94212 26.6558 3.94212 26.6558C3.94213 26.6558 3.94213 26.6559 3.94214 26.6559C3.94214 26.6559 3.94214 26.6559 3.94215 26.6559C3.94215 26.6559 3.94216 26.6559 3.94216 26.6559C3.94216 26.6559 3.94217 26.6559 3.94217 26.6559C3.94218 26.6559 3.94218 26.6559 3.94219 26.6559C3.94219 26.6559 3.94219 26.6559 3.9422 26.6559C3.9422 26.6559 3.94221 26.6559 3.94221 26.6559C3.94221 26.6559 3.94222 26.656 3.94222 26.656C3.94223 26.656 3.94223 26.656 3.94223 26.656C3.94224 26.656 3.94224 26.656 3.94225 26.656C3.94225 26.656 3.94225 26.656 3.94226 26.656C3.94226 26.656 3.94227 26.656 3.94227 26.656C3.94227 26.656 3.94228 26.656 3.94228 26.656C3.94228 26.656 3.94229 26.656 3.94229 26.656C3.9423 26.656 3.9423 26.656 3.9423 26.656C3.94231 26.6561 3.94231 26.6561 3.94232 26.6561C3.94232 26.6561 3.94232 26.6561 3.94233 26.6561C3.94233 26.6561 3.94233 26.6561 3.94234 26.6561C3.94234 26.6561 3.94235 26.6561 3.94235 26.6561C3.94235 26.6561 3.94236 26.6561 3.94236 26.6561C3.94237 26.6561 3.94237 26.6561 3.94237 26.6561C3.94238 26.6561 3.94238 26.6561 3.94238 26.6561C3.94239 26.6561 3.94239 26.6561 3.9424 26.6562C3.9424 26.6562 3.9424 26.6562 3.94241 26.6562C3.94241 26.6562 3.94241 26.6562 3.94242 26.6562C3.94242 26.6562 3.94242 26.6562 3.94243 26.6562C3.94243 26.6562 3.94244 26.6562 3.94244 26.6562C3.94244 26.6562 3.94245 26.6562 3.94245 26.6562C3.94245 26.6562 3.94246 26.6562 3.94246 26.6562C3.94246 26.6562 3.94247 26.6562 3.94247 26.6562C3.94247 26.6562 3.94248 26.6562 3.94248 26.6563C3.94249 26.6563 3.94249 26.6563 3.94249 26.6563C3.9425 26.6563 3.9425 26.6563 3.9425 26.6563C3.94251 26.6563 3.94251 26.6563 3.94251 26.6563C3.94252 26.6563 3.94252 26.6563 3.94252 26.6563C3.94253 26.6563 3.94253 26.6563 3.94253 26.6563C3.94254 26.6563 3.94254 26.6563 3.94254 26.6563C3.94255 26.6563 3.94255 26.6563 3.94255 26.6563C3.94256 26.6563 3.94256 26.6563 3.94256 26.6563C3.94257 26.6564 3.94257 26.6564 3.94257 26.6564C3.94258 26.6564 3.94258 26.6564 3.94258 26.6564C3.94259 26.6564 3.94259 26.6564 3.94259 26.6564C3.9426 26.6564 3.9426 26.6564 3.9426 26.6564C3.94261 26.6564 3.94261 26.6564 3.94261 26.6564C3.94262 26.6564 3.94262 26.6564 3.94262 26.6564C3.94263 26.6564 3.94263 26.6564 3.94263 26.6564C3.94264 26.6564 3.94264 26.6564 3.94264 26.6564C3.94265 26.6564 3.94265 26.6564 3.94265 26.6564C3.94266 26.6565 3.94266 26.6565 3.94266 26.6565C3.94267 26.6565 3.94267 26.6565 3.94267 26.6565C3.94267 26.6565 3.94268 26.6565 3.94268 26.6565C3.94268 26.6565 3.94269 26.6565 3.94269 26.6565C3.94269 26.6565 3.9427 26.6565 3.9427 26.6565C3.9427 26.6565 3.94271 26.6565 3.94271 26.6565C3.94271 26.6565 3.94271 26.6565 3.94272 26.6565C3.94272 26.6565 3.94272 26.6565 3.94273 26.6565C3.94273 26.6565 3.94273 26.6565 3.94274 26.6565C3.94274 26.6565 3.94274 26.6566 3.94274 26.6566C3.94275 26.6566 3.94275 26.6566 3.94275 26.6566C3.94276 26.6566 3.94276 26.6566 3.94276 26.6566C3.94277 26.6566 3.94277 26.6566 3.94277 26.6566C3.94277 26.6566 3.94278 26.6566 3.94278 26.6566C3.94278 26.6566 3.94279 26.6566 3.94279 26.6566C3.94279 26.6566 3.94279 26.6566 3.9428 26.6566C3.9428 26.6566 3.9428 26.6566 3.94281 26.6566C3.94281 26.6566 3.94281 26.6566 3.94281 26.6566C3.94282 26.6566 3.94282 26.6566 3.94282 26.6566C3.94283 26.6566 3.94283 26.6567 3.94283 26.6567C3.94283 26.6567 3.94284 26.6567 3.94284 26.6567C3.94284 26.6567 3.94285 26.6567 3.94285 26.6567C3.94285 26.6567 3.94285 26.6567 3.94286 26.6567C3.94286 26.6567 3.94286 26.6567 3.94286 26.6567C3.94287 26.6567 3.94287 26.6567 3.94287 26.6567C3.94288 26.6567 3.94288 26.6567 3.94288 26.6567C3.94288 26.6567 3.94289 26.6567 3.94289 26.6567C3.94289 26.6567 3.94289 26.6567 3.9429 26.6567C3.9429 26.6567 3.9429 26.6567 3.9429 26.6567C3.94291 26.6567 3.94291 26.6567 3.94291 26.6567C3.94292 26.6568 3.94292 26.6568 3.94292 26.6568C3.94292 26.6568 3.94293 26.6568 3.94293 26.6568C3.94293 26.6568 3.94293 26.6568 3.94294 26.6568C3.94294 26.6568 3.94294 26.6568 3.94294 26.6568C3.94295 26.6568 3.94295 26.6568 3.94295 26.6568C3.94295 26.6568 3.94296 26.6568 3.94296 26.6568C3.94296 26.6568 3.94296 26.6568 3.94297 26.6568C3.94297 26.6568 3.94297 26.6568 3.94297 26.6568C3.94298 26.6568 3.94298 26.6568 3.94298 26.6568C3.94298 26.6568 3.94299 26.6568 3.94299 26.6568C3.94299 26.6568 3.94299 26.6568 3.943 26.6568C3.943 26.6568 3.943 26.6568 3.943 26.6569C3.943 26.6569 3.94301 26.6569 3.94301 26.6569C3.94301 26.6569 3.94301 26.6569 3.94302 26.6569C3.94302 26.6569 3.94302 26.6569 3.94302 26.6569C3.94303 26.6569 3.94303 26.6569 3.94303 26.6569C3.94303 26.6569 3.94304 26.6569 3.94304 26.6569C3.94304 26.6569 3.94304 26.6569 3.94304 26.6569C3.94305 26.6569 3.94305 26.6569 3.94305 26.6569C3.94305 26.6569 3.94306 26.6569 3.94306 26.6569C3.94306 26.6569 3.94306 26.6569 3.94307 26.6569C3.94307 26.6569 3.94307 26.6569 3.94307 26.6569C3.94307 26.6569 3.94308 26.6569 3.94308 26.6569C3.94308 26.6569 3.94308 26.6569 3.94309 26.6569C3.94309 26.6569 3.94309 26.6569 3.94309 26.657C3.94309 26.657 3.9431 26.657 3.9431 26.657C3.9431 26.657 3.9431 26.657 3.9431 26.657C3.94311 26.657 3.94311 26.657 3.94311 26.657C3.94311 26.657 3.94312 26.657 3.94312 26.657C3.94312 26.657 3.94312 26.657 3.94312 26.657C3.94313 26.657 3.94313 26.657 3.94313 26.657C3.94313 26.657 3.94313 26.657 3.94314 26.657C3.94314 26.657 3.94314 26.657 3.94314 26.657C3.94314 26.657 3.94315 26.657 3.94315 26.657C3.94315 26.657 3.94315 26.657 3.94315 26.657C3.94316 26.657 3.94316 26.657 3.94316 26.657C3.94316 26.657 3.94316 26.657 3.94317 26.657C3.94317 26.657 3.94317 26.657 3.94317 26.657C3.94317 26.657 3.94318 26.657 3.94318 26.6571C3.94318 26.6571 3.94318 26.6571 3.94318 26.6571C3.94319 26.6571 3.94319 26.6571 3.94319 26.6571C3.94319 26.6571 3.94319 26.6571 3.9432 26.6571C3.9432 26.6571 3.9432 26.6571 3.9432 26.6571C3.9432 26.6571 3.9432 26.6571 3.94321 26.6571C3.94321 26.6571 3.94321 26.6571 3.94321 26.6571C3.94321 26.6571 3.94322 26.6571 3.94322 26.6571C3.94322 26.6571 3.94322 26.6571 3.94322 26.6571C3.94323 26.6571 3.94323 26.6571 3.94323 26.6571C3.94323 26.6571 3.94323 26.6571 3.94323 26.6571C3.94324 26.6571 3.94324 26.6571 3.94324 26.6571C3.94324 26.6571 3.94324 26.6571 3.94325 26.6571C3.94325 26.6571 3.94325 26.6571 3.94325 26.6571C3.94325 26.6571 3.94325 26.6571 3.94326 26.6571C3.94326 26.6571 3.94326 26.6571 3.94326 26.6571C3.94326 26.6571 3.94326 26.6572 3.94327 26.6572C3.94327 26.6572 3.94327 26.6572 3.94327 26.6572C3.94327 26.6572 3.94327 26.6572 3.94328 26.6572C3.94328 26.6572 3.94328 26.6572 3.94328 26.6572C3.94328 26.6572 3.94328 26.6572 3.94329 26.6572C3.94329 26.6572 3.94329 26.6572 3.94329 26.6572C3.94329 26.6572 3.94329 26.6572 3.9433 26.6572C3.9433 26.6572 3.9433 26.6572 3.9433 26.6572C3.9433 26.6572 3.9433 26.6572 3.94331 26.6572C3.94331 26.6572 3.94331 26.6572 3.94331 26.6572C3.94331 26.6572 3.94331 26.6572 3.94332 26.6572C3.94332 26.6572 3.94332 26.6572 3.94332 26.6572C3.94332 26.6572 3.94332 26.6572 3.94332 26.6572C3.94333 26.6572 3.94333 26.6572 3.94333 26.6572C3.94333 26.6572 3.94333 26.6572 3.94333 26.6572C3.94334 26.6572 3.94334 26.6572 3.94334 26.6572C3.94334 26.6572 3.94334 26.6572 3.94334 26.6572C3.94334 26.6572 3.94335 26.6572 3.94335 26.6572C3.94335 26.6572 3.94335 26.6572 3.94335 26.6573C3.94335 26.6573 3.94335 26.6573 3.94336 26.6573C3.94336 26.6573 3.94336 26.6573 3.94336 26.6573C3.94336 26.6573 3.94336 26.6573 3.94336 26.6573C3.94337 26.6573 3.94337 26.6573 3.94337 26.6573C3.94337 26.6573 3.94337 26.6573 3.94337 26.6573C3.94337 26.6573 3.94338 26.6573 3.94338 26.6573C3.94338 26.6573 3.94338 26.6573 3.94338 26.6573C3.94338 26.6573 3.94338 26.6573 3.94339 26.6573C3.94339 26.6573 3.94339 26.6573 3.94339 26.6573C3.94339 26.6573 3.94339 26.6573 3.94339 26.6573C3.94339 26.6573 3.9434 26.6573 3.9434 26.6573C3.9434 26.6573 3.9434 26.6573 3.9434 26.6573C3.9434 26.6573 3.9434 26.6573 3.9434 26.6573C3.94341 26.6573 3.94341 26.6573 3.94341 26.6573C3.94341 26.6573 3.94341 26.6573 3.94341 26.6573C3.94341 26.6573 3.94341 26.6573 3.94342 26.6573C3.94342 26.6573 3.94342 26.6573 3.94342 26.6573C3.94342 26.6573 3.94342 26.6573 3.94342 26.6573C3.94342 26.6573 3.94343 26.6573 3.94343 26.6573C3.94343 26.6573 3.94343 26.6573 3.94343 26.6573C3.94343 26.6573 3.94343 26.6573 3.94343 26.6573C3.94344 26.6573 3.94344 26.6573 3.94344 26.6573C3.94344 26.6574 3.94344 26.6574 3.94344 26.6574C3.94344 26.6574 3.94344 26.6574 3.94345 26.6574C3.94345 26.6574 3.94345 26.6574 3.94345 26.6574C3.94345 26.6574 3.94345 26.6574 3.94345 26.6574C3.94345 26.6574 3.94345 26.6574 3.94346 26.6574C3.94346 26.6574 3.94346 26.6574 3.94346 26.6574C3.94346 26.6574 3.94346 26.6574 3.94346 26.6574C3.94346 26.6574 3.94346 26.6574 3.94347 26.6574C3.94347 26.6574 3.94347 26.6574 3.94347 26.6574C3.94347 26.6574 3.94347 26.6574 3.94347 26.6574C3.94347 26.6574 3.94347 26.6574 3.94348 26.6574C3.94348 26.6574 3.94348 26.6574 3.94348 26.6574C3.94348 26.6574 3.94348 26.6574 3.94348 26.6574C3.94348 26.6574 3.94348 26.6574 3.94348 26.6574C3.94349 26.6574 3.94349 26.6574 3.94349 26.6574C3.94349 26.6574 3.94349 26.6574 3.94349 26.6574C3.94349 26.6574 3.94349 26.6574 3.94349 26.6574C3.94349 26.6574 3.9435 26.6574 3.9435 26.6574C3.9435 26.6574 3.9435 26.6574 3.9435 26.6574C3.9435 26.6574 3.9435 26.6574 3.9435 26.6574C3.9435 26.6574 3.9435 26.6574 3.9435 26.6574C3.94351 26.6574 3.94351 26.6574 3.94351 26.6574C3.94351 26.6574 3.94351 26.6574 3.94351 26.6574C3.94351 26.6574 3.94351 26.6574 3.94351 26.6574C3.94351 26.6574 3.94351 26.6574 3.94352 26.6574C3.94352 26.6574 3.94352 26.6574 3.94352 26.6574C3.94352 26.6574 3.94352 26.6574 3.94352 26.6574C3.94352 26.6574 3.94352 26.6574 3.94352 26.6574C3.94352 26.6574 3.94353 26.6574 3.94353 26.6575C3.94353 26.6575 3.94353 26.6575 3.94353 26.6575C3.94353 26.6575 3.94353 26.6575 3.94353 26.6575C3.94353 26.6575 3.94353 26.6575 3.94353 26.6575C3.94353 26.6575 3.94354 26.6575 3.94354 26.6575C3.94354 26.6575 3.94354 26.6575 3.94354 26.6575C3.94354 26.6575 3.94354 26.6575 3.94354 26.6575C3.94354 26.6575 3.94354 26.6575 3.94354 26.6575C3.94354 26.6575 3.94354 26.6575 3.94355 26.6575C3.94355 26.6575 3.94355 26.6575 3.94355 26.6575C3.94355 26.6575 3.94355 26.6575 3.94355 26.6575C3.94355 26.6575 3.94355 26.6575 3.94355 26.6575C3.94355 26.6575 3.94355 26.6575 3.94355 26.6575C3.94356 26.6575 3.94356 26.6575 3.94356 26.6575C3.94356 26.6575 3.94356 26.6575 3.94356 26.6575C3.94356 26.6575 3.94356 26.6575 3.94356 26.6575C3.94356 26.6575 3.94356 26.6575 3.94356 26.6575C3.94356 26.6575 3.94356 26.6575 3.94356 26.6575C3.94357 26.6575 3.94357 26.6575 3.94357 26.6575C3.94357 26.6575 3.94357 26.6575 3.94357 26.6575C3.94357 26.6575 3.94357 26.6575 3.94357 26.6575C3.94357 26.6575 3.94357 26.6575 3.94357 26.6575C3.94357 26.6575 3.94357 26.6575 3.94357 26.6575C3.94358 26.6575 3.94358 26.6575 3.94358 26.6575C3.94358 26.6575 3.94358 26.6575 3.94358 26.6575C3.94358 26.6575 3.94358 26.6575 3.94358 26.6575C3.94358 26.6575 3.94358 26.6575 3.94358 26.6575C3.94358 26.6575 3.94358 26.6575 3.94358 26.6575C3.94358 26.6575 3.94359 26.6575 3.94359 26.6575C3.94359 26.6575 3.94359 26.6575 3.94359 26.6575C3.94359 26.6575 3.94359 26.6575 3.94359 26.6575C3.94359 26.6575 3.94359 26.6575 3.94359 26.6575C3.94359 26.6575 3.94359 26.6575 3.94359 26.6575C3.94359 26.6575 3.94359 26.6575 3.94359 26.6575C3.94359 26.6575 3.9436 26.6575 3.9436 26.6575C3.9436 26.6575 3.9436 26.6575 3.9436 26.6575C3.9436 26.6575 3.9436 26.6575 3.9436 26.6575C3.9436 26.6575 3.9436 26.6575 3.9436 26.6575C3.9436 26.6575 3.9436 26.6575 3.9436 26.6575C3.9436 26.6575 3.9436 26.6575 3.9436 26.6575C3.9436 26.6575 3.9436 26.6575 3.94361 26.6575C3.94361 26.6575 3.94361 26.6575 3.94361 26.6575C3.94361 26.6575 3.94361 26.6575 3.94361 26.6575C3.94361 26.6575 3.94361 26.6575 3.94361 26.6575C3.94361 26.6575 3.94361 26.6575 3.94361 26.6575C3.94361 26.6575 3.94361 26.6575 3.94361 26.6575C3.94361 26.6576 3.94361 26.6576 3.94361 26.6576C3.94361 26.6576 3.94361 26.6576 3.94361 26.6576C3.94362 26.6576 3.94362 26.6576 3.94362 26.6576C3.94362 26.6576 3.94362 26.6576 3.94362 26.6576C3.94362 26.6576 3.94362 26.6576 3.94362 26.6576C3.94362 26.6576 3.94362 26.6576 3.94362 26.6576C3.94362 26.6576 3.94362 26.6576 3.94362 26.6576C3.94362 26.6576 3.94362 26.6576 3.94362 26.6576C3.94362 26.6576 3.94362 26.6576 3.94362 26.6576C3.94362 26.6576 3.94362 26.6576 3.94362 26.6576L3.94363 26.6576C3.94363 26.6576 3.94363 26.6576 3.94363 26.6576C3.94363 26.6576 3.94363 26.6576 3.94363 26.6576C3.94363 26.6576 3.94363 26.6576 3.94363 26.6576L3.94363 26.6576C3.94363 26.6576 3.94363 26.6576 3.94363 26.6576L3.94363 26.6576C3.94363 26.6576 3.94363 26.6576 3.94363 26.6576C3.94363 26.6576 3.94363 26.6576 3.94363 26.6576L3.94363 26.6576C3.94364 26.6576 3.94364 26.6576 3.94364 26.6576L3.94364 26.6576C3.94364 26.6576 3.94364 26.6576 3.94364 26.6576C3.94364 26.6576 3.94364 26.6576 3.94364 26.6576L3.94364 26.6576C3.94364 26.6576 3.94364 26.6576 3.94364 26.6576C3.94364 26.6576 3.94364 26.6576 3.94364 26.6576L3.94364 26.6576C3.94364 26.6576 3.94364 26.6576 3.94364 26.6576C3.94364 26.6576 3.94364 26.6576 3.94364 26.6576C3.94364 26.6576 3.94364 26.6576 3.94364 26.6576L3.94365 26.6576L3.94365 26.6576C3.94365 26.6576 3.94365 26.6576 3.94365 26.6576C3.94365 26.6576 3.94365 26.6576 3.94365 26.6576C3.94365 26.6576 3.94365 26.6576 3.94365 26.6576C3.94365 26.6576 3.94365 26.6576 3.94365 26.6576C3.94365 26.6576 3.94365 26.6576 3.94365 26.6576C3.94365 26.6576 3.94365 26.6576 3.94365 26.6576C3.94365 26.6576 3.94365 26.6576 3.94365 26.6576C3.94365 26.6576 3.94365 26.6576 3.94365 26.6576C3.94365 26.6576 3.94365 26.6576 3.94365 26.6576C3.94365 26.6576 3.94365 26.6576 3.94365 26.6576C3.94365 26.6576 3.94365 26.6576 3.94365 26.6576L3.94365 26.6576L3.94365 26.6576C3.94365 26.6576 3.94365 26.6576 3.94365 26.6576C3.94366 26.6576 3.94366 26.6576 3.94366 26.6576L3.94366 26.6576C3.94366 26.6576 3.94366 26.6576 3.94366 26.6576C3.94366 26.6576 3.94366 26.6576 3.94366 26.6576C3.94366 26.6576 3.94366 26.6576 3.94366 26.6576C3.94366 26.6576 3.94366 26.6576 3.94366 26.6576C3.94366 26.6576 3.94366 26.6576 3.94366 26.6576C3.94366 26.6576 3.94366 26.6576 3.94366 26.6576L3.94366 26.6576L3.94366 26.6576L3.94366 26.6576C3.94366 26.6576 3.94366 26.6576 3.94366 26.6576C3.94366 26.6576 3.94366 26.6576 3.94366 26.6576C3.94366 26.6576 3.94366 26.6576 3.94366 26.6576C3.94366 26.6576 3.94366 26.6576 3.94366 26.6576C3.94366 26.6576 3.94366 26.6576 3.94366 26.6576C3.94367 26.6576 3.94367 26.6576 3.94367 26.6576C3.94367 26.6576 3.94367 26.6576 3.94367 26.6576L3.94367 26.6576C3.94367 26.6576 3.94367 26.6576 4.22627 26.4111C4.50887 26.1646 4.50887 26.1646 4.50887 26.1646L4.50887 26.1646C4.50887 26.1646 4.50887 26.1646 4.50887 26.1646C4.50887 26.1646 4.50887 26.1646 4.50887 26.1646C4.50887 26.1646 4.50887 26.1646 4.50887 26.1646C4.50887 26.1646 4.50887 26.1646 4.50887 26.1646C4.50887 26.1646 4.50887 26.1646 4.50887 26.1646C4.50887 26.1646 4.50887 26.1646 4.50886 26.1646C4.50886 26.1646 4.50886 26.1646 4.50886 26.1646L4.50886 26.1646L4.50886 26.1646L4.50886 26.1646C4.50886 26.1646 4.50886 26.1646 4.50886 26.1646C4.50886 26.1646 4.50886 26.1646 4.50886 26.1646C4.50886 26.1646 4.50886 26.1646 4.50886 26.1646C4.50886 26.1646 4.50886 26.1646 4.50886 26.1646C4.50886 26.1646 4.50886 26.1646 4.50886 26.1646C4.50886 26.1646 4.50886 26.1646 4.50886 26.1646L4.50886 26.1646C4.50886 26.1646 4.50886 26.1646 4.50886 26.1646C4.50886 26.1646 4.50886 26.1646 4.50886 26.1646L4.50886 26.1646L4.50886 26.1646C4.50886 26.1646 4.50886 26.1646 4.50885 26.1646C4.50885 26.1646 4.50885 26.1646 4.50885 26.1646C4.50885 26.1646 4.50885 26.1646 4.50885 26.1646C4.50885 26.1646 4.50885 26.1646 4.50885 26.1646C4.50885 26.1646 4.50885 26.1646 4.50885 26.1646C4.50885 26.1646 4.50885 26.1646 4.50885 26.1646C4.50885 26.1646 4.50885 26.1646 4.50885 26.1646C4.50885 26.1646 4.50885 26.1646 4.50885 26.1646C4.50885 26.1646 4.50885 26.1646 4.50885 26.1646C4.50885 26.1646 4.50885 26.1646 4.50885 26.1646C4.50885 26.1646 4.50885 26.1646 4.50885 26.1646L4.50885 26.1646L4.50885 26.1646C4.50885 26.1646 4.50885 26.1646 4.50885 26.1646C4.50885 26.1646 4.50885 26.1646 4.50884 26.1646C4.50884 26.1646 4.50884 26.1646 4.50884 26.1646L4.50884 26.1646C4.50884 26.1646 4.50884 26.1646 4.50884 26.1646C4.50884 26.1646 4.50884 26.1646 4.50884 26.1646L4.50884 26.1646C4.50884 26.1646 4.50884 26.1646 4.50884 26.1646C4.50884 26.1646 4.50884 26.1646 4.50884 26.1646L4.50884 26.1646C4.50884 26.1646 4.50884 26.1646 4.50884 26.1646L4.50884 26.1646C4.50884 26.1646 4.50884 26.1646 4.50884 26.1646C4.50884 26.1646 4.50883 26.1646 4.50883 26.1646L4.50883 26.1646C4.50883 26.1646 4.50883 26.1646 4.50883 26.1646L4.50883 26.1646C4.50883 26.1646 4.50883 26.1646 4.50883 26.1646C4.50883 26.1646 4.50883 26.1646 4.50883 26.1646C4.50883 26.1646 4.50883 26.1646 4.50883 26.1646L4.50883 26.1646C4.50883 26.1646 4.50883 26.1646 4.50883 26.1646C4.50883 26.1646 4.50883 26.1646 4.50882 26.1646C4.50882 26.1646 4.50882 26.1646 4.50882 26.1646C4.50882 26.1646 4.50882 26.1646 4.50882 26.1646C4.50882 26.1646 4.50882 26.1646 4.50882 26.1646C4.50882 26.1646 4.50882 26.1646 4.50882 26.1646C4.50882 26.1646 4.50882 26.1646 4.50882 26.1646C4.50882 26.1646 4.50882 26.1646 4.50882 26.1646C4.50882 26.1646 4.50882 26.1646 4.50882 26.1646C4.50882 26.1646 4.50882 26.1646 4.50881 26.1646C4.50881 26.1646 4.50881 26.1646 4.50881 26.1646C4.50881 26.1646 4.50881 26.1645 4.50881 26.1645C4.50881 26.1645 4.50881 26.1645 4.50881 26.1645C4.50881 26.1645 4.50881 26.1645 4.50881 26.1645C4.50881 26.1645 4.50881 26.1645 4.50881 26.1645C4.50881 26.1645 4.50881 26.1645 4.50881 26.1645C4.50881 26.1645 4.50881 26.1645 4.5088 26.1645C4.5088 26.1645 4.5088 26.1645 4.5088 26.1645C4.5088 26.1645 4.5088 26.1645 4.5088 26.1645C4.5088 26.1645 4.5088 26.1645 4.5088 26.1645C4.5088 26.1645 4.5088 26.1645 4.5088 26.1645C4.5088 26.1645 4.5088 26.1645 4.5088 26.1645C4.5088 26.1645 4.5088 26.1645 4.5088 26.1645C4.50879 26.1645 4.50879 26.1645 4.50879 26.1645C4.50879 26.1645 4.50879 26.1645 4.50879 26.1645C4.50879 26.1645 4.50879 26.1645 4.50879 26.1645C4.50879 26.1645 4.50879 26.1645 4.50879 26.1645C4.50879 26.1645 4.50879 26.1645 4.50879 26.1645C4.50879 26.1645 4.50879 26.1645 4.50878 26.1645C4.50878 26.1645 4.50878 26.1645 4.50878 26.1645C4.50878 26.1645 4.50878 26.1645 4.50878 26.1645C4.50878 26.1645 4.50878 26.1645 4.50878 26.1645C4.50878 26.1645 4.50878 26.1645 4.50878 26.1645C4.50878 26.1645 4.50878 26.1645 4.50878 26.1645C4.50877 26.1645 4.50877 26.1645 4.50877 26.1645C4.50877 26.1645 4.50877 26.1645 4.50877 26.1645C4.50877 26.1645 4.50877 26.1645 4.50877 26.1645C4.50877 26.1645 4.50877 26.1645 4.50877 26.1645C4.50877 26.1645 4.50877 26.1645 4.50877 26.1645C4.50876 26.1645 4.50876 26.1645 4.50876 26.1645C4.50876 26.1645 4.50876 26.1645 4.50876 26.1645C4.50876 26.1645 4.50876 26.1645 4.50876 26.1645C4.50876 26.1645 4.50876 26.1645 4.50876 26.1645C4.50876 26.1645 4.50876 26.1645 4.50875 26.1645C4.50875 26.1645 4.50875 26.1645 4.50875 26.1645C4.50875 26.1645 4.50875 26.1645 4.50875 26.1645C4.50875 26.1645 4.50875 26.1645 4.50875 26.1645C4.50875 26.1645 4.50875 26.1645 4.50875 26.1645C4.50874 26.1645 4.50874 26.1645 4.50874 26.1645C4.50874 26.1645 4.50874 26.1645 4.50874 26.1645C4.50874 26.1645 4.50874 26.1645 4.50874 26.1645C4.50874 26.1645 4.50874 26.1645 4.50874 26.1645C4.50874 26.1645 4.50873 26.1645 4.50873 26.1645C4.50873 26.1645 4.50873 26.1645 4.50873 26.1645C4.50873 26.1645 4.50873 26.1645 4.50873 26.1645C4.50873 26.1645 4.50873 26.1645 4.50873 26.1645C4.50873 26.1644 4.50872 26.1644 4.50872 26.1644C4.50872 26.1644 4.50872 26.1644 4.50872 26.1644C4.50872 26.1644 4.50872 26.1644 4.50872 26.1644C4.50872 26.1644 4.50872 26.1644 4.50872 26.1644C4.50871 26.1644 4.50871 26.1644 4.50871 26.1644C4.50871 26.1644 4.50871 26.1644 4.50871 26.1644C4.50871 26.1644 4.50871 26.1644 4.50871 26.1644C4.50871 26.1644 4.50871 26.1644 4.5087 26.1644C4.5087 26.1644 4.5087 26.1644 4.5087 26.1644C4.5087 26.1644 4.5087 26.1644 4.5087 26.1644C4.5087 26.1644 4.5087 26.1644 4.5087 26.1644C4.50869 26.1644 4.50869 26.1644 4.50869 26.1644C4.50869 26.1644 4.50869 26.1644 4.50869 26.1644C4.50869 26.1644 4.50869 26.1644 4.50869 26.1644C4.50869 26.1644 4.50868 26.1644 4.50868 26.1644C4.50868 26.1644 4.50868 26.1644 4.50868 26.1644C4.50868 26.1644 4.50868 26.1644 4.50868 26.1644C4.50868 26.1644 4.50868 26.1644 4.50867 26.1644C4.50867 26.1644 4.50867 26.1644 4.50867 26.1644C4.50867 26.1644 4.50867 26.1644 4.50867 26.1644C4.50867 26.1644 4.50867 26.1644 4.50866 26.1644C4.50866 26.1644 4.50866 26.1644 4.50866 26.1644C4.50866 26.1644 4.50866 26.1644 4.50866 26.1644C4.50866 26.1644 4.50866 26.1644 4.50865 26.1644C4.50865 26.1644 4.50865 26.1644 4.50865 26.1644C4.50865 26.1644 4.50865 26.1644 4.50865 26.1644C4.50865 26.1644 4.50865 26.1644 4.50864 26.1644C4.50864 26.1644 4.50864 26.1644 4.50864 26.1644C4.50864 26.1644 4.50864 26.1643 4.50864 26.1643C4.50864 26.1643 4.50863 26.1643 4.50863 26.1643C4.50863 26.1643 4.50863 26.1643 4.50863 26.1643C4.50863 26.1643 4.50863 26.1643 4.50863 26.1643C4.50862 26.1643 4.50862 26.1643 4.50862 26.1643C4.50862 26.1643 4.50862 26.1643 4.50862 26.1643C4.50862 26.1643 4.50862 26.1643 4.50861 26.1643C4.50861 26.1643 4.50861 26.1643 4.50861 26.1643C4.50861 26.1643 4.50861 26.1643 4.50861 26.1643C4.50861 26.1643 4.5086 26.1643 4.5086 26.1643C4.5086 26.1643 4.5086 26.1643 4.5086 26.1643C4.5086 26.1643 4.5086 26.1643 4.5086 26.1643C4.50859 26.1643 4.50859 26.1643 4.50859 26.1643C4.50859 26.1643 4.50859 26.1643 4.50859 26.1643C4.50859 26.1643 4.50858 26.1643 4.50858 26.1643C4.50858 26.1643 4.50858 26.1643 4.50858 26.1643C4.50858 26.1643 4.50858 26.1643 4.50858 26.1643C4.50857 26.1643 4.50857 26.1643 4.50857 26.1643C4.50857 26.1643 4.50857 26.1643 4.50857 26.1643C4.50857 26.1643 4.50856 26.1643 4.50856 26.1643C4.50856 26.1643 4.50856 26.1643 4.50856 26.1643C4.50856 26.1643 4.50856 26.1643 4.50855 26.1643C4.50855 26.1643 4.50855 26.1642 4.50855 26.1642C4.50855 26.1642 4.50855 26.1642 4.50855 26.1642C4.50854 26.1642 4.50854 26.1642 4.50854 26.1642C4.50854 26.1642 4.50854 26.1642 4.50854 26.1642C4.50853 26.1642 4.50853 26.1642 4.50853 26.1642C4.50853 26.1642 4.50853 26.1642 4.50853 26.1642C4.50853 26.1642 4.50852 26.1642 4.50852 26.1642C4.50852 26.1642 4.50852 26.1642 4.50852 26.1642C4.50852 26.1642 4.50851 26.1642 4.50851 26.1642C4.50851 26.1642 4.50851 26.1642 4.50851 26.1642C4.50851 26.1642 4.50851 26.1642 4.5085 26.1642C4.5085 26.1642 4.5085 26.1642 4.5085 26.1642C4.5085 26.1642 4.5085 26.1642 4.50849 26.1642C4.50849 26.1642 4.50849 26.1642 4.50849 26.1642C4.50849 26.1642 4.50849 26.1642 4.50848 26.1642C4.50848 26.1642 4.50848 26.1642 4.50848 26.1642C4.50848 26.1642 4.50848 26.1642 4.50847 26.1642C4.50847 26.1642 4.50847 26.1642 4.50847 26.1642C4.50847 26.1642 4.50847 26.1642 4.50846 26.1641C4.50846 26.1641 4.50846 26.1641 4.50846 26.1641C4.50846 26.1641 4.50846 26.1641 4.50845 26.1641C4.50845 26.1641 4.50845 26.1641 4.50845 26.1641C4.50845 26.1641 4.50844 26.1641 4.50844 26.1641C4.50844 26.1641 4.50844 26.1641 4.50844 26.1641C4.50843 26.1641 4.50843 26.1641 4.50843 26.1641C4.50843 26.1641 4.50843 26.1641 4.50843 26.1641C4.50842 26.1641 4.50842 26.1641 4.50842 26.1641C4.50842 26.1641 4.50842 26.1641 4.50841 26.1641C4.50841 26.1641 4.50841 26.1641 4.50841 26.1641C4.50841 26.1641 4.50841 26.1641 4.5084 26.1641C4.5084 26.1641 4.5084 26.1641 4.5084 26.1641C4.5084 26.1641 4.50839 26.1641 4.50839 26.1641C4.50839 26.1641 4.50839 26.1641 4.50839 26.1641C4.50838 26.1641 4.50838 26.1641 4.50838 26.1641C4.50838 26.1641 4.50838 26.164 4.50837 26.164C4.50837 26.164 4.50837 26.164 4.50837 26.164C4.50837 26.164 4.50836 26.164 4.50836 26.164C4.50836 26.164 4.50836 26.164 4.50836 26.164C4.50835 26.164 4.50835 26.164 4.50835 26.164C4.50835 26.164 4.50835 26.164 4.50834 26.164C4.50834 26.164 4.50834 26.164 4.50834 26.164C4.50834 26.164 4.50833 26.164 4.50833 26.164C4.50833 26.164 4.50833 26.164 4.50833 26.164C4.50832 26.164 4.50832 26.164 4.50832 26.164C4.50832 26.164 4.50832 26.164 4.50831 26.164C4.50831 26.164 4.50831 26.164 4.50831 26.164C4.50831 26.164 4.5083 26.164 4.5083 26.164C4.5083 26.164 4.5083 26.164 4.50829 26.164C4.50829 26.164 4.50829 26.1639 4.50829 26.1639C4.50829 26.1639 4.50828 26.1639 4.50828 26.1639C4.50828 26.1639 4.50828 26.1639 4.50827 26.1639C4.50827 26.1639 4.50827 26.1639 4.50827 26.1639C4.50827 26.1639 4.50826 26.1639 4.50826 26.1639C4.50826 26.1639 4.50826 26.1639 4.50825 26.1639C4.50825 26.1639 4.50825 26.1639 4.50825 26.1639C4.50825 26.1639 4.50824 26.1639 4.50824 26.1639C4.50824 26.1639 4.50824 26.1639 4.50823 26.1639C4.50823 26.1639 4.50823 26.1639 4.50823 26.1639C4.50822 26.1639 4.50822 26.1639 4.50822 26.1639C4.50822 26.1639 4.50821 26.1639 4.50821 26.1639C4.50821 26.1639 4.50821 26.1639 4.5082 26.1639C4.5082 26.1639 4.5082 26.1638 4.5082 26.1638C4.5082 26.1638 4.50819 26.1638 4.50819 26.1638C4.50819 26.1638 4.50819 26.1638 4.50818 26.1638C4.50818 26.1638 4.50818 26.1638 4.50818 26.1638C4.50817 26.1638 4.50817 26.1638 4.50817 26.1638C4.50817 26.1638 4.50816 26.1638 4.50816 26.1638C4.50816 26.1638 4.50816 26.1638 4.50815 26.1638C4.50815 26.1638 4.50815 26.1638 4.50815 26.1638C4.50814 26.1638 4.50814 26.1638 4.50814 26.1638C4.50814 26.1638 4.50813 26.1638 4.50813 26.1638C4.50813 26.1638 4.50813 26.1638 4.50812 26.1638C4.50812 26.1638 4.50812 26.1638 4.50811 26.1637C4.50811 26.1637 4.50811 26.1637 4.50811 26.1637C4.5081 26.1637 4.5081 26.1637 4.5081 26.1637C4.5081 26.1637 4.50809 26.1637 4.50809 26.1637C4.50809 26.1637 4.50809 26.1637 4.50808 26.1637C4.50808 26.1637 4.50808 26.1637 4.50808 26.1637C4.50807 26.1637 4.50807 26.1637 4.50807 26.1637C4.50806 26.1637 4.50806 26.1637 4.50806 26.1637C4.50806 26.1637 4.50805 26.1637 4.50805 26.1637C4.50805 26.1637 4.50805 26.1637 4.50804 26.1637C4.50804 26.1637 4.50804 26.1637 4.50803 26.1637C4.50803 26.1637 4.50803 26.1637 4.50803 26.1636C4.50802 26.1636 4.50802 26.1636 4.50802 26.1636C4.50801 26.1636 4.50801 26.1636 4.50801 26.1636C4.50801 26.1636 4.508 26.1636 4.508 26.1636C4.508 26.1636 4.50799 26.1636 4.50799 26.1636C4.50799 26.1636 4.50799 26.1636 4.50798 26.1636C4.50798 26.1636 4.50798 26.1636 4.50797 26.1636C4.50797 26.1636 4.50797 26.1636 4.50797 26.1636C4.50796 26.1636 4.50796 26.1636 4.50796 26.1636C4.50795 26.1636 4.50795 26.1636 4.50795 26.1636C4.50794 26.1636 4.50794 26.1636 4.50794 26.1635C4.50794 26.1635 4.50793 26.1635 4.50793 26.1635C4.50793 26.1635 4.50792 26.1635 4.50792 26.1635C4.50792 26.1635 4.50791 26.1635 4.50791 26.1635C4.50791 26.1635 4.50791 26.1635 4.5079 26.1635C4.5079 26.1635 4.5079 26.1635 4.50789 26.1635C4.50789 26.1635 4.50789 26.1635 4.50788 26.1635C4.50788 26.1635 4.50788 26.1635 4.50787 26.1635C4.50787 26.1635 4.50787 26.1635 4.50786 26.1635C4.50786 26.1635 4.50786 26.1635 4.50786 26.1635C4.50785 26.1634 4.50785 26.1634 4.50785 26.1634C4.50784 26.1634 4.50784 26.1634 4.50784 26.1634C4.50783 26.1634 4.50783 26.1634 4.50783 26.1634C4.50782 26.1634 4.50782 26.1634 4.50782 26.1634C4.50781 26.1634 4.50781 26.1634 4.50781 26.1634C4.5078 26.1634 4.5078 26.1634 4.5078 26.1634C4.50779 26.1634 4.50779 26.1634 4.50779 26.1634C4.50778 26.1634 4.50778 26.1634 4.50778 26.1634C4.50777 26.1634 4.50777 26.1634 4.50777 26.1634C4.50776 26.1633 4.50776 26.1633 4.50776 26.1633C4.50775 26.1633 4.50775 26.1633 4.50775 26.1633C4.50774 26.1633 4.50774 26.1633 4.50774 26.1633C4.50773 26.1633 4.50773 26.1633 4.50773 26.1633C4.50772 26.1633 4.50772 26.1633 4.50772 26.1633C4.50771 26.1633 4.50771 26.1633 4.50771 26.1633C4.5077 26.1633 4.5077 26.1633 4.50769 26.1633C4.50769 26.1633 4.50769 26.1633 4.50768 26.1633C4.50768 26.1633 4.50768 26.1632 4.50767 26.1632C4.50767 26.1632 4.50767 26.1632 4.50766 26.1632C4.50766 26.1632 4.50766 26.1632 4.50765 26.1632C4.50765 26.1632 4.50765 26.1632 4.50764 26.1632C4.50764 26.1632 4.50763 26.1632 4.50763 26.1632C4.50763 26.1632 4.50762 26.1632 4.50762 26.1632C4.50762 26.1632 4.50761 26.1632 4.50761 26.1632C4.50761 26.1632 4.5076 26.1632 4.5076 26.1632C4.50759 26.1632 4.50759 26.1631 4.50759 26.1631C4.50758 26.1631 4.50758 26.1631 4.50758 26.1631C4.50757 26.1631 4.50757 26.1631 4.50756 26.1631C4.50756 26.1631 4.50756 26.1631 4.50755 26.1631C4.50755 26.1631 4.50755 26.1631 4.50754 26.1631C4.50754 26.1631 4.50753 26.1631 4.50753 26.1631C4.50753 26.1631 4.50752 26.1631 4.50752 26.1631C4.50751 26.1631 4.50751 26.1631 4.50751 26.1631C4.5075 26.163 4.5075 26.163 4.5075 26.163C4.50749 26.163 4.50749 26.163 4.50748 26.163C4.50748 26.163 4.50748 26.163 4.50747 26.163C4.50747 26.163 4.50746 26.163 4.50746 26.163C4.50746 26.163 4.50745 26.163 4.50745 26.163C4.50744 26.163 4.50744 26.163 4.50744 26.163C4.50743 26.163 4.50743 26.163 4.50742 26.163C4.50742 26.163 4.50742 26.1629 4.50741 26.1629C4.50741 26.1629 4.5074 26.1629 4.5074 26.1629C4.5074 26.1629 4.50739 26.1629 4.50739 26.1629C4.50738 26.1629 4.50738 26.1629 4.50737 26.1629C4.50737 26.1629 4.50737 26.1629 4.50736 26.1629C4.50736 26.1629 4.50735 26.1629 4.50735 26.1629C4.50735 26.1629 4.50734 26.1629 4.50734 26.1629C4.50733 26.1629 4.50733 26.1628 4.50733 26.1628C4.50732 26.1628 4.50732 26.1628 4.50731 26.1628C4.50731 26.1628 4.5073 26.1628 4.5073 26.1628C4.5073 26.1628 4.50729 26.1628 4.50729 26.1628C4.50728 26.1628 4.50728 26.1628 4.50727 26.1628C4.50727 26.1628 4.50727 26.1628 4.50726 26.1628C4.50726 26.1628 4.50725 26.1628 4.50725 26.1628C4.50724 26.1628 4.50724 26.1627 4.50724 26.1627C4.50723 26.1627 4.50723 26.1627 4.50722 26.1627C4.50722 26.1627 4.50721 26.1627 4.50721 26.1627C4.5072 26.1627 4.5072 26.1627 4.5072 26.1627C4.50719 26.1627 4.50719 26.1627 4.50718 26.1627C4.50718 26.1627 4.50717 26.1627 4.50717 26.1627C4.50716 26.1627 4.50716 26.1627 4.50716 26.1626C4.50715 26.1626 4.50715 26.1626 4.50714 26.1626C4.50714 26.1626 4.50713 26.1626 4.50713 26.1626C4.50712 26.1626 4.50712 26.1626 4.50711 26.1626C4.50711 26.1626 4.50711 26.1626 4.5071 26.1626C4.5071 26.1626 4.50709 26.1626 4.50709 26.1626C4.50708 26.1626 4.50708 26.1626 4.50707 26.1626C4.50707 26.1625 4.50706 26.1625 4.50706 26.1625C4.50705 26.1625 4.50705 26.1625 4.50705 26.1625C4.50704 26.1625 4.50704 26.1625 4.50703 26.1625C4.50703 26.1625 4.50702 26.1625 4.50702 26.1625C4.50701 26.1625 4.50701 26.1625 4.507 26.1625C4.507 26.1625 4.50699 26.1625 4.50699 26.1625C4.50698 26.1625 4.50698 26.1624 4.50697 26.1624C4.50697 26.1624 4.50696 26.1624 4.50696 26.1624C4.50695 26.1624 4.50695 26.1624 4.50694 26.1624C4.50694 26.1624 4.50693 26.1624 4.50693 26.1624C4.50692 26.1624 4.50692 26.1624 4.50691 26.1624C4.50691 26.1624 4.50691 26.1624 4.5069 26.1624C4.5069 26.1624 4.50689 26.1623 4.50689 26.1623C4.50688 26.1623 4.50688 26.1623 4.50687 26.1623C4.50687 26.1623 4.50686 26.1623 4.50686 26.1623C4.50685 26.1623 4.50685 26.1623 4.50684 26.1623C4.50684 26.1623 4.50683 26.1623 4.50683 26.1623C4.50682 26.1623 4.50682 26.1623 4.50681 26.1623C4.50681 26.1622 4.5068 26.1622 4.50679 26.1622C4.50679 26.1622 4.50678 26.1622 4.50678 26.1622C4.50677 26.1622 4.50677 26.1622 4.50676 26.1622C4.50676 26.1622 4.50675 26.1622 4.50675 26.1622C4.50674 26.1622 4.50674 26.1622 4.50673 26.1622C4.50673 26.1622 4.50672 26.1622 4.50672 26.1621C4.50671 26.1621 4.50671 26.1621 4.5067 26.1621C4.5067 26.1621 4.50669 26.1621 4.50669 26.1621C4.50668 26.1621 4.50667 26.1621 4.50667 26.1621C4.50666 26.1621 4.50666 26.1621 4.50665 26.1621C4.50665 26.1621 4.50664 26.1621 4.50664 26.1621C4.50663 26.162 4.50663 26.162 4.50662 26.162C4.50662 26.162 4.50661 26.162 4.5066 26.162C4.5066 26.162 4.50659 26.162 4.50659 26.162C4.50658 26.162 4.50658 26.162 4.50657 26.162C4.50657 26.162 4.50656 26.162 4.50656 26.162C4.50655 26.162 4.50654 26.1619 4.50654 26.1619C4.50653 26.1619 4.50653 26.1619 4.50652 26.1619C4.50652 26.1619 4.50651 26.1619 4.50651 26.1619C4.5065 26.1619 4.50649 26.1619 4.50649 26.1619C4.50648 26.1619 4.50648 26.1619 4.50647 26.1619C4.50647 26.1619 4.50646 26.1619 4.50645 26.1618C4.50645 26.1618 4.50644 26.1618 4.50644 26.1618C4.50643 26.1618 4.50643 26.1618 4.50642 26.1618C4.50642 26.1618 4.50641 26.1618 4.5064 26.1618C4.5064 26.1618 4.50639 26.1618 4.50639 26.1618C4.50638 26.1618 4.50638 26.1618 4.50637 26.1617C4.50636 26.1617 4.50636 26.1617 4.50635 26.1617C4.50635 26.1617 4.50634 26.1617 4.50633 26.1617C4.50633 26.1617 4.50632 26.1617 4.50632 26.1617C4.50631 26.1617 4.5063 26.1617 4.5063 26.1617C4.50629 26.1617 4.50629 26.1617 4.50628 26.1616C4.50627 26.1616 4.50627 26.1616 4.50626 26.1616C4.50626 26.1616 4.50625 26.1616 4.50625 26.1616C4.50624 26.1616 4.50623 26.1616 4.50623 26.1616C4.50622 26.1616 4.50622 26.1616 4.50621 26.1616C4.5062 26.1616 4.5062 26.1616 4.50619 26.1615C4.50619 26.1615 4.50618 26.1615 4.50617 26.1615C4.50617 26.1615 4.50616 26.1615 4.50615 26.1615C4.50615 26.1615 4.50614 26.1615 4.50614 26.1615C4.50613 26.1615 4.50612 26.1615 4.50612 26.1615C4.50611 26.1615 4.5061 26.1614 4.5061 26.1614C4.50609 26.1614 4.50609 26.1614 4.50608 26.1614C4.50607 26.1614 4.50607 26.1614 4.50606 26.1614C4.50606 26.1614 4.50605 26.1614 4.50604 26.1614C4.50604 26.1614 4.50603 26.1614 4.50602 26.1614C4.50602 26.1613 4.50601 26.1613 4.506 26.1613C4.506 26.1613 4.50599 26.1613 4.50599 26.1613C4.50598 26.1613 4.50597 26.1613 4.50597 26.1613C4.50596 26.1613 4.50595 26.1613 4.50595 26.1613C4.50594 26.1613 4.50593 26.1612 4.50593 26.1612C4.50592 26.1612 4.50591 26.1612 4.50591 26.1612C4.5059 26.1612 4.5059 26.1612 4.50589 26.1612C4.50588 26.1612 4.50588 26.1612 4.50587 26.1612C4.50586 26.1612 4.50586 26.1612 4.50585 26.1612C4.50584 26.1611 4.50584 26.1611 4.50583 26.1611C4.50582 26.1611 4.50582 26.1611 4.50581 26.1611C4.5058 26.1611 4.5058 26.1611 4.50579 26.1611C4.50578 26.1611 4.50578 26.1611 4.50577 26.1611C4.50576 26.1611 4.50576 26.161 4.50575 26.161C4.50574 26.161 4.50574 26.161 4.50573 26.161C4.50572 26.161 4.50572 26.161 4.50571 26.161C4.5057 26.161 4.5057 26.161 4.50569 26.161C4.50568 26.161 4.50568 26.161 4.50567 26.1609C4.50566 26.1609 4.50565 26.1609 4.50565 26.1609C4.50564 26.1609 4.50563 26.1609 4.50563 26.1609C4.50562 26.1609 4.50561 26.1609 4.50561 26.1609C4.5056 26.1609 4.50559 26.1609 4.50559 26.1609C4.50558 26.1608 4.50557 26.1608 4.50556 26.1608C4.50556 26.1608 4.50555 26.1608 4.50554 26.1608C4.50554 26.1608 4.50553 26.1608 4.50552 26.1608C4.50552 26.1608 4.50551 26.1608 4.5055 26.1608C4.50549 26.1607 4.50549 26.1607 4.50548 26.1607C4.50547 26.1607 4.50547 26.1607 4.50546 26.1607C4.50545 26.1607 4.50544 26.1607 4.50544 26.1607C4.50543 26.1607 4.50542 26.1607 4.50542 26.1607C4.50541 26.1606 4.5054 26.1606 4.50539 26.1606C4.50539 26.1606 4.50538 26.1606 4.50537 26.1606C4.50537 26.1606 4.50536 26.1606 4.50535 26.1606C4.50534 26.1606 4.50534 26.1606 4.50533 26.1606C4.50532 26.1605 4.50531 26.1605 4.50531 26.1605C4.5053 26.1605 4.50529 26.1605 4.50528 26.1605C4.50528 26.1605 4.50527 26.1605 4.50526 26.1605C4.50526 26.1605 4.50525 26.1605 4.50524 26.1605C4.50523 26.1604 4.50523 26.1604 4.50522 26.1604C4.50521 26.1604 4.5052 26.1604 4.5052 26.1604C4.50519 26.1604 4.50518 26.1604 4.50517 26.1604C4.50517 26.1604 4.50516 26.1604 4.50515 26.1604C4.50514 26.1603 4.50514 26.1603 4.50513 26.1603C4.50512 26.1603 4.50511 26.1603 4.50511 26.1603C4.5051 26.1603 4.50509 26.1603 4.50508 26.1603C4.50507 26.1603 4.50507 26.1603 4.50506 26.1602C4.50505 26.1602 4.50504 26.1602 4.50504 26.1602C4.50503 26.1602 4.50502 26.1602 4.50501 26.1602C4.50501 26.1602 4.505 26.1602 4.50499 26.1602C4.50498 26.1602 4.50497 26.1601 4.50497 26.1601C4.50496 26.1601 4.50495 26.1601 4.50494 26.1601C4.50494 26.1601 4.50493 26.1601 4.50492 26.1601C4.50491 26.1601 4.5049 26.1601 4.5049 26.1601C4.50489 26.16 4.50488 26.16 4.50487 26.16C4.50486 26.16 4.50486 26.16 4.50485 26.16C4.50484 26.16 4.50483 26.16 4.50482 26.16C4.50482 26.16 4.50481 26.16 4.5048 26.1599C4.50479 26.1599 4.50478 26.1599 4.50478 26.1599C4.50477 26.1599 4.50476 26.1599 4.50475 26.1599C4.50474 26.1599 4.50474 26.1599 4.50473 26.1599C4.50472 26.1599 4.50471 26.1598 4.5047 26.1598C4.5047 26.1598 4.50469 26.1598 4.50468 26.1598L3.93948 26.6528ZM3.97977 26.1285L3.97501 26.1327L4.46801 26.6979L4.47277 26.6937L3.97977 26.1285ZM4.16953 26.0439C4.11961 26.0509 4.0494 26.0421 3.98199 26.0141L3.69456 26.7068C3.86371 26.777 4.0693 26.8152 4.27348 26.7866L4.16953 26.0439ZM3.98928 26.0172C3.93604 25.9938 3.88458 25.9497 3.78187 25.8531L3.26807 26.3994C3.352 26.4784 3.49557 26.6194 3.68726 26.7037L3.98928 26.0172ZM3.79502 25.8661C3.71472 25.7827 3.64414 25.7012 3.58389 25.6165L2.9728 26.0513C3.06109 26.1754 3.15809 26.286 3.25492 26.3865L3.79502 25.8661ZM3.59413 25.6317C3.52365 25.5216 3.47358 25.4406 3.43583 25.3547L2.74914 25.6563C2.81345 25.8027 2.89403 25.9291 2.96256 26.0361L3.59413 25.6317ZM3.37509 25.259C3.41673 25.3067 3.45177 25.3723 3.46248 25.4522C3.47284 25.5294 3.45711 25.5949 3.43856 25.6405C3.42066 25.6845 3.39789 25.7161 3.38233 25.735C3.37398 25.7452 3.36602 25.7538 3.35904 25.7608C3.35551 25.7644 3.3521 25.7677 3.34887 25.7707C3.34725 25.7722 3.34566 25.7737 3.34411 25.7751C3.34334 25.7758 3.34257 25.7764 3.34182 25.7771C3.34144 25.7774 3.34106 25.7778 3.34068 25.7781C3.3405 25.7783 3.34031 25.7784 3.34012 25.7786C3.34003 25.7787 3.33989 25.7788 3.33984 25.7788C3.3397 25.779 3.33956 25.7791 3.09306 25.4965C2.84655 25.2139 2.84641 25.214 2.84627 25.2141C2.84622 25.2142 2.84608 25.2143 2.84599 25.2144C2.8458 25.2146 2.84562 25.2147 2.84543 25.2149C2.84505 25.2152 2.84467 25.2155 2.84429 25.2159C2.84353 25.2166 2.84275 25.2173 2.84197 25.218C2.8404 25.2194 2.83879 25.2209 2.83714 25.2224C2.83384 25.2255 2.83034 25.2289 2.82668 25.2325C2.81946 25.2398 2.81116 25.2488 2.80243 25.2594C2.78611 25.2793 2.76241 25.3122 2.74384 25.3579C2.72463 25.4051 2.70849 25.4725 2.71913 25.5519C2.73013 25.6339 2.76614 25.7018 2.80988 25.7519L3.37509 25.259ZM3.33956 25.7791C3.34771 25.772 3.33003 25.7882 3.30936 25.8025C3.29073 25.8154 3.20155 25.877 3.07054 25.8675C2.94047 25.858 2.86144 25.785 2.84557 25.7704C2.82742 25.7537 2.81238 25.7356 2.81941 25.7436L3.38461 25.2506C3.38448 25.2505 3.38366 25.2496 3.38279 25.2486C3.38188 25.2475 3.38023 25.2457 3.37819 25.2434C3.37493 25.2398 3.3659 25.23 3.35345 25.2185C3.33625 25.2027 3.25614 25.129 3.12496 25.1194C2.99283 25.1098 2.90249 25.1719 2.88239 25.1859C2.86825 25.1957 2.85778 25.2044 2.85401 25.2075C2.85164 25.2095 2.84972 25.2111 2.84867 25.2121C2.84765 25.2129 2.84671 25.2138 2.84656 25.2139L3.33956 25.7791Z" fill="#0B1A39"/>
</svg>
