<svg width="23" height="24" viewBox="0 0 23 24" fill="none" xmlns="http://www.w3.org/2000/svg">
<path d="M18.4433 15.2631C19.6518 15.2631 20.8108 15.7233 21.6654 16.5426C22.5199 17.3618 23 18.473 23 19.6315C23 20.7901 22.5199 21.9013 21.6654 22.7205C20.8108 23.5398 19.6518 24 18.4433 24C17.2348 24 16.0758 23.5398 15.2212 22.7205C14.3667 21.9013 13.8866 20.7901 13.8866 19.6315C13.8866 18.473 14.3667 17.3618 15.2212 16.5426C16.0758 15.7233 17.2348 15.2631 18.4433 15.2631ZM18.4433 17.4473C17.839 17.4473 17.2595 17.6774 16.8322 18.0871C16.405 18.4967 16.1649 19.0522 16.1649 19.6315C16.1649 20.2108 16.405 20.7664 16.8322 21.176C17.2595 21.5856 17.839 21.8158 18.4433 21.8158C19.0475 21.8158 19.6271 21.5856 20.0543 21.176C20.4816 20.7664 20.7216 20.2108 20.7216 19.6315C20.7216 19.0522 20.4816 18.4967 20.0543 18.0871C19.6271 17.6774 19.0475 17.4473 18.4433 17.4473ZM4.83011 14.7607C4.83011 14.7607 6.43635 13.2099 6.44775 10.1302C6.03764 7.73842 7.01733 4.93169 9.26151 2.79115C12.5993 -0.408746 17.4636 -0.932961 20.1521 1.61166C22.8063 4.18905 22.2595 8.85238 18.9217 12.0523C16.689 14.2037 13.7613 15.143 11.2665 14.7498C8.05399 14.7607 6.43635 16.3006 6.43635 16.3006L1.60624 20.9312L0 19.3913L4.83011 14.7607ZM18.523 3.17339C16.7345 1.46969 13.317 1.98298 10.8678 4.34195C8.42992 6.67907 7.88311 9.96633 9.66023 11.67C11.4487 13.3737 14.8663 12.8495 17.3041 10.5124C19.7647 8.16435 20.3002 4.88801 18.523 3.17339Z" fill="black"/>
</svg>
