<svg width="20" height="20" viewBox="0 0 20 20" fill="none" xmlns="http://www.w3.org/2000/svg">
<path fill-rule="evenodd" clip-rule="evenodd" d="M0.416992 10.2084C0.416992 4.80059 4.80059 0.416992 10.2084 0.416992C15.6162 0.416992 19.9998 4.80059 19.9998 10.2084C19.9998 15.6162 15.6162 19.9998 10.2084 19.9998C4.80059 19.9998 0.416992 15.6162 0.416992 10.2084ZM10.2084 2.37527C8.13091 2.37527 6.13852 3.20054 4.66953 4.66953C3.20054 6.13852 2.37527 8.13091 2.37527 10.2084C2.37527 12.2858 3.20054 14.2782 4.66953 15.7472C6.13852 17.2162 8.13091 18.0415 10.2084 18.0415C12.2858 18.0415 14.2782 17.2162 15.7472 15.7472C17.2162 14.2782 18.0415 12.2858 18.0415 10.2084C18.0415 8.13091 17.2162 6.13852 15.7472 4.66953C14.2782 3.20054 12.2858 2.37527 10.2084 2.37527Z" fill="white"/>
<path fill-rule="evenodd" clip-rule="evenodd" d="M11.1875 5.31215C11.1875 5.05246 11.0843 4.80341 10.9007 4.61979C10.7171 4.43617 10.468 4.33301 10.2083 4.33301C9.94864 4.33301 9.69959 4.43617 9.51597 4.61979C9.33235 4.80341 9.22919 5.05246 9.22919 5.31215V9.2287H5.31263C5.05295 9.2287 4.8039 9.33186 4.62028 9.51548C4.43666 9.69911 4.3335 9.94815 4.3335 10.2078C4.3335 10.4675 4.43666 10.7166 4.62028 10.9002C4.8039 11.0838 5.05295 11.187 5.31263 11.187H9.22919V15.1035C9.22919 15.3632 9.33235 15.6123 9.51597 15.7959C9.69959 15.9795 9.94864 16.0827 10.2083 16.0827C10.468 16.0827 10.7171 15.9795 10.9007 15.7959C11.0843 15.6123 11.1875 15.3632 11.1875 15.1035V11.187H15.104C15.3637 11.187 15.6127 11.0838 15.7964 10.9002C15.98 10.7166 16.0832 10.4675 16.0832 10.2078C16.0832 9.94815 15.98 9.69911 15.7964 9.51548C15.6127 9.33186 15.3637 9.2287 15.104 9.2287H11.1875V5.31215Z" fill="white"/>
</svg>
