<svg width="27" height="27" viewBox="0 0 27 27" fill="none" xmlns="http://www.w3.org/2000/svg">
<g clip-path="url(#clip0_745_393)">
<path d="M1.6875 1.6875V25.3125H13.5V27H0V0H14.6997L21.9375 7.23779V16.875H20.25V8.4375H13.5V1.6875H1.6875ZM15.1875 2.88721V6.75H19.0503L15.1875 2.88721ZM3.375 6.75H11.8125V8.4375H3.375V6.75ZM18.5625 10.125V11.8125H3.375V10.125H18.5625ZM3.375 15.1875V13.5H18.5625V15.1875H3.375ZM3.375 18.5625V16.875H13.5V18.5625H3.375ZM3.375 21.9375V20.25H13.5V21.9375H3.375ZM18.5625 18.5625H27V20.25H18.5625V18.5625ZM18.5625 23.625V21.9375H27V23.625H18.5625ZM18.5625 27V25.3125H27V27H18.5625ZM15.1875 20.25V18.5625H16.875V20.25H15.1875ZM15.1875 23.625V21.9375H16.875V23.625H15.1875ZM15.1875 27V25.3125H16.875V27H15.1875Z" fill="#0B1A39"/>
</g>
<defs>
<clipPath id="clip0_745_393">
<rect width="27" height="27" fill="white"/>
</clipPath>
</defs>
</svg>
