<svg width="11" height="12" viewBox="0 0 11 12" fill="none" xmlns="http://www.w3.org/2000/svg">
<path d="M8.66899 11.1183C8.23063 11.1183 7.85803 10.9646 7.55118 10.6573C7.24433 10.35 7.0909 9.97675 7.0909 9.53768C7.0909 9.47621 7.09528 9.41245 7.10405 9.34642C7.11282 9.28038 7.12597 9.2212 7.1435 9.16886L3.43501 7.00865C3.28597 7.14037 3.11939 7.24363 2.93528 7.31845C2.75117 7.39327 2.55829 7.4305 2.35665 7.43015C1.91829 7.43015 1.54569 7.27648 1.23884 6.96913C0.931989 6.66178 0.778564 6.28857 0.778564 5.84951C0.778564 5.41044 0.931989 5.03723 1.23884 4.72988C1.54569 4.42253 1.91829 4.26886 2.35665 4.26886C2.55829 4.26886 2.75117 4.30627 2.93528 4.38109C3.11939 4.4559 3.28597 4.559 3.43501 4.69037L7.1435 2.53015C7.12597 2.47746 7.11282 2.41828 7.10405 2.35259C7.09528 2.28691 7.0909 2.22315 7.0909 2.16133C7.0909 1.72227 7.24433 1.34906 7.55118 1.04171C7.85803 0.734362 8.23063 0.580688 8.66899 0.580688C9.10734 0.580688 9.47995 0.734362 9.7868 1.04171C10.0936 1.34906 10.2471 1.72227 10.2471 2.16133C10.2471 2.6004 10.0936 2.97361 9.7868 3.28096C9.47995 3.5883 9.10734 3.74198 8.66899 3.74198C8.46734 3.74198 8.27446 3.70475 8.09035 3.63028C7.90624 3.55581 7.73967 3.45254 7.59063 3.32047L3.88213 5.48069C3.89966 5.53338 3.91282 5.59274 3.92158 5.65877C3.93035 5.72481 3.93473 5.78839 3.93473 5.84951C3.93473 5.91062 3.93035 5.97438 3.92158 6.04076C3.91282 6.10715 3.89966 6.16634 3.88213 6.21832L7.59063 8.37854C7.73967 8.24682 7.90624 8.14372 8.09035 8.06926C8.27446 7.99479 8.46734 7.95738 8.66899 7.95703C9.10734 7.95703 9.47995 8.11071 9.7868 8.41805C10.0936 8.7254 10.2471 9.09861 10.2471 9.53768C10.2471 9.97675 10.0936 10.35 9.7868 10.6573C9.47995 10.9646 9.10734 11.1183 8.66899 11.1183Z" fill="#0077FF"/>
</svg>
