<svg width="23" height="23" viewBox="0 0 23 23" fill="none" xmlns="http://www.w3.org/2000/svg">
<path d="M21.8703 12.2794C21.6133 12.2981 21.4543 12.3077 21.1923 12.3077C15.3931 12.3077 10.6923 7.60692 10.6923 1.80769C10.6923 1.53661 10.7024 1.36901 10.7226 1.10096M1.08329 10.7206C1.08329 10.7206 1.54721 10.6923 1.80769 10.6923C7.60692 10.6923 12.3077 15.3931 12.3077 21.1923C12.3077 21.4639 12.2769 21.899 12.2769 21.899M22 11.5C22 17.299 17.299 22 11.5 22C5.70101 22 1 17.299 1 11.5C1 5.70101 5.70101 1 11.5 1C17.299 1 22 5.70101 22 11.5Z" stroke="white" stroke-width="1.5" stroke-linecap="round" stroke-linejoin="round"/>
</svg>
