<svg width="31" height="31" viewBox="0 0 31 31" fill="none" xmlns="http://www.w3.org/2000/svg">
<g clip-path="url(#clip0_412_342)">
<path d="M27.7387 6.88444C25.3093 3.59917 19.9935 3.40885 15.8672 6.4609C13.4489 8.24854 11.984 10.7511 11.6662 13.1794C11.1082 15.7474 10.2684 18.1807 8.82397 19.4479L8.4633 18.9596L7.71066 19.5157L7.86495 19.7244L2.80426 23.4661L2.64996 23.2574L1.89822 23.8133L3.93048 26.5634L4.68306 26.0077L4.5287 25.7994L9.58981 22.0577L9.74417 22.266L10.4955 21.7101L10.1847 21.2873C11.8187 20.2784 14.3878 20.1886 17.0043 20.4061C19.4196 20.8162 22.2441 20.1499 24.6643 18.3605C28.7932 15.3088 30.1688 10.1707 27.7387 6.88444ZM27.5335 11.6191L27.0233 10.93L27.5585 10.535C27.5823 10.8918 27.5733 11.2539 27.5335 11.6191ZM27.4658 9.83007L26.654 10.4306L25.5283 8.90756L26.7363 8.014C27.0934 8.56714 27.341 9.18364 27.4658 9.83007ZM14.3778 14.0204L16.2883 12.6071L17.4152 14.1308L15.5041 15.5431L14.3778 14.0204ZM15.0048 15.9145L13.7946 16.8081C13.4371 16.2548 13.1895 15.6378 13.0653 14.9908L13.8774 14.3911L15.0048 15.9145ZM21.6203 8.66582L23.5298 7.25327L24.6558 8.77726L22.745 10.19L21.6203 8.66582ZM23.7409 12.5831L21.8287 13.9995L20.7008 12.4765L22.6146 11.0608L23.7409 12.5831ZM22.2447 10.56L20.331 11.9749L19.2048 10.4518L21.1186 9.03643L22.2447 10.56ZM19.8301 12.346L17.916 13.7609L16.7891 12.2368L18.7036 10.822L19.8301 12.346ZM18.8341 9.95085L17.7108 8.43112L19.6246 7.01579L20.7471 8.53498L18.8341 9.95085ZM18.3336 10.3216L16.4188 11.7359L15.2959 10.2163L17.2089 8.80041L18.3336 10.3216ZM17.7854 14.6325L18.9113 16.1547L17.0009 17.568L15.8756 16.0441L17.7854 14.6325ZM18.2876 14.2615L20.2004 12.8465L21.3266 14.3696L19.4117 15.7848L18.2876 14.2615ZM21.6982 14.8702L22.8194 16.3901L20.9053 17.8049L19.7812 16.2851L21.6982 14.8702ZM22.1978 14.4997L24.1115 13.0848L25.2357 14.6043L23.3219 16.0196L22.1978 14.4997ZM23.1158 10.6909L25.027 9.2778L26.1529 10.8001L24.2437 12.2135L23.1158 10.6909ZM26.3664 7.51322L25.1575 8.40707L24.0302 6.8829L24.8414 6.2831C25.4242 6.59118 25.942 7.00886 26.3664 7.51322ZM24.1952 5.98663L23.6608 6.38177L23.1518 5.69335C23.5125 5.76276 23.8614 5.85983 24.1952 5.98663ZM22.2969 5.58489L23.1595 6.75201L21.2496 8.16492L20.125 6.64542L21.5742 5.57386C21.8182 5.56563 22.0595 5.56978 22.2969 5.58489ZM20.3332 5.71681L19.7555 6.14471L19.5735 5.8986C19.8239 5.82658 20.0774 5.76592 20.3332 5.71681ZM18.9504 6.10299L19.254 6.51406L17.3393 7.92968L16.8143 7.21752C17.4765 6.75754 18.1943 6.38306 18.9504 6.10299ZM16.3129 7.58861L16.8393 8.30053L14.9252 9.71537L14.6213 9.30383C15.1108 8.66321 15.6791 8.08691 16.3129 7.58861ZM14.2428 9.84006L14.4243 10.0861L13.8457 10.5139C13.9662 10.2853 14.0979 10.0611 14.2428 9.84006ZM13.3455 11.6572L14.7947 10.5861L15.9184 12.1059L14.0082 13.5179L13.1441 12.3497C13.1995 12.1191 13.2662 11.8877 13.3455 11.6572ZM13.5063 13.8893L12.9719 14.2845C12.9486 13.9233 12.9573 13.5607 12.9978 13.201L13.5063 13.8893ZM10.8629 19.3635C10.4748 18.8387 11.334 17.1587 11.903 16.1685C12.1009 16.795 12.3889 17.3927 12.7908 17.9362C13.193 18.4802 13.6804 18.9312 14.2225 19.3046C13.1091 19.558 11.2502 19.8874 10.8629 19.3635ZM14.1649 17.3094L15.3739 16.4151L16.5 17.9387L15.6871 18.5383C15.1057 18.2298 14.5889 17.8127 14.1649 17.3094ZM16.3351 18.8341L16.87 18.4386L17.3793 19.128C17.0232 19.0609 16.6738 18.9626 16.3351 18.8341ZM18.2345 19.2365L17.3705 18.0679L19.2808 16.6554L20.4054 18.1749L18.9555 19.2477C18.7151 19.2557 18.4745 19.252 18.2345 19.2365ZM20.1961 19.1047L20.7742 18.6772L20.9566 18.923C20.703 18.9955 20.4495 19.056 20.1961 19.1047ZM21.5817 18.7172L21.2778 18.3056L23.1914 16.8912L23.7174 17.6026C23.0553 18.0627 22.3378 18.4372 21.5817 18.7172ZM24.2182 17.2323L23.6918 16.5208L25.6055 15.1055L25.9103 15.5167C25.4206 16.1574 24.8521 16.7338 24.2182 17.2323ZM26.2884 14.9808L26.1063 14.7351L26.6844 14.3077C26.5628 14.5381 26.4306 14.7627 26.2884 14.9808ZM27.1854 13.1623L25.736 14.2343L24.6133 12.7138L26.5236 11.3014L27.3868 12.4699C27.331 12.7038 27.2638 12.9349 27.1854 13.1623ZM8.07296 10.9739C9.29874 11.1575 10.523 10.853 11.5199 10.1163C12.5167 9.37924 13.1663 8.29792 13.35 7.07214C13.5337 5.84635 13.2283 4.62194 12.4911 3.62547C11.7544 2.62907 10.6736 1.97869 9.44786 1.79502C8.22208 1.61135 6.99862 1.91605 6.00216 2.65318C5.00534 3.38984 4.35489 4.47103 4.17123 5.69681C3.98756 6.9226 4.29206 8.1473 5.0292 9.14377C5.39038 9.63488 5.84536 10.0495 6.36781 10.3636C6.89027 10.6778 7.46982 10.8852 8.07296 10.9739ZM11.8698 4.08565C12.4575 4.87787 12.7178 5.86594 12.5966 6.84492C11.6331 6.65829 10.7749 6.11648 10.192 5.32688C9.60749 4.53825 9.341 3.55862 9.44546 2.58256C10.4166 2.75364 11.2847 3.29186 11.8698 4.08565ZM6.46185 3.27491C7.18552 2.73706 8.07549 2.47124 8.97559 2.5241C8.85576 3.62076 9.15345 4.72231 9.80936 5.60932C10.4653 6.49633 11.4312 7.10371 12.5149 7.31045C12.3019 8.18685 11.7866 8.96007 11.0598 9.4941C10.336 10.0319 9.44587 10.2977 8.54564 10.2448C8.66555 9.14839 8.36784 8.04701 7.71186 7.16027C7.05645 6.27308 6.09064 5.6656 5.00713 5.45904C5.21975 4.58243 5.73491 3.80897 6.46185 3.27491ZM7.32964 7.44214C7.91363 8.23102 8.18007 9.21044 8.07619 10.1865C7.10479 10.0156 6.23639 9.47747 5.65099 8.68366C5.06335 7.89145 4.80336 6.90335 4.92501 5.92451C5.88841 6.11118 6.7466 6.6528 7.32964 7.44214Z" fill="#2E55B9"/>
</g>
<defs>
<clipPath id="clip0_412_342">
<rect width="27" height="27" fill="white" transform="translate(4.14941 0.148438) rotate(8.52164)"/>
</clipPath>
</defs>
</svg>
