<svg width="25" height="24" viewBox="0 0 25 24" fill="none" xmlns="http://www.w3.org/2000/svg">
<path d="M2 19.9993C2 18.5849 2.5619 17.2283 3.5621 16.2281C4.56229 15.2279 5.91885 14.666 7.33333 14.666H18C19.4145 14.666 20.771 15.2279 21.7712 16.2281C22.7714 17.2283 23.3333 18.5849 23.3333 19.9993C23.3333 20.7066 23.0524 21.3849 22.5523 21.885C22.0522 22.3851 21.3739 22.666 20.6667 22.666H4.66667C3.95942 22.666 3.28115 22.3851 2.78105 21.885C2.28095 21.3849 2 20.7066 2 19.9993Z" stroke="black" stroke-width="2.08333" stroke-linejoin="round"/>
<path d="M12.6667 9.33301C14.8759 9.33301 16.6667 7.54215 16.6667 5.33301C16.6667 3.12387 14.8759 1.33301 12.6667 1.33301C10.4576 1.33301 8.66675 3.12387 8.66675 5.33301C8.66675 7.54215 10.4576 9.33301 12.6667 9.33301Z" stroke="black" stroke-width="2.08333"/>
</svg>
